<svg width="180" height="60" viewBox="0 0 180 60" fill="none" xmlns="http://www.w3.org/2000/svg">
<g clip-path="url(#clip0_2953_6962)">
<path d="M26.8013 27.7021L32.3943 22.1093L37.9902 27.7051L41.2446 24.4507L32.3943 15.6001L23.5469 24.4477L26.8013 27.7021Z" fill="white"/>
<path d="M24.5026 29.999L21.2483 26.7446L17.9938 29.9991L21.2481 33.2535L24.5026 29.999Z" fill="white"/>
<path d="M26.8007 32.2976L32.3937 37.8904L37.9894 32.2949L41.2456 35.5475L41.244 35.5493L32.3937 44.3997L23.5461 35.5523L23.5415 35.5477L26.8007 32.2976Z" fill="white"/>
<path d="M43.5395 33.2555L46.7939 30.001L43.5396 26.7466L40.2851 30.0011L43.5395 33.2555Z" fill="white"/>
<path d="M35.6948 29.9982H35.6962L32.3938 26.6958L29.9533 29.1363H29.9531L29.6728 29.4168L29.0944 29.9952L29.0898 29.9998L29.0944 30.0046L32.3938 33.304L35.6962 30.0016L35.6978 29.9998L35.6948 29.9982Z" fill="white"/>
<path d="M51.8674 22.5786H58.9456C60.7023 22.5786 62.0307 23.0295 62.931 23.9311C63.6278 24.6295 63.976 25.495 63.976 26.5275V26.5711C63.976 27.0074 63.9221 27.393 63.8136 27.7274C63.7053 28.0622 63.5607 28.3636 63.3798 28.6327C63.1995 28.902 62.9897 29.1383 62.7513 29.3417C62.5127 29.5455 62.2564 29.7202 61.9818 29.8653C62.8648 30.2002 63.56 30.6544 64.0668 31.229C64.5734 31.8038 64.827 32.6002 64.827 33.6181V33.6616C64.827 34.3599 64.6928 34.9706 64.4241 35.4945C64.1555 36.0179 63.7706 36.4544 63.2695 36.8036C62.7684 37.1527 62.1658 37.4143 61.4616 37.589C60.7574 37.7635 59.9769 37.8506 59.1205 37.8506H51.8674V22.5786ZM58.2379 28.7528C58.9799 28.7528 59.5691 28.6259 60.0051 28.3711C60.4414 28.1166 60.6595 27.7055 60.6595 27.1384V27.0948C60.6595 26.5859 60.4703 26.197 60.0922 25.9276C59.714 25.6585 59.1685 25.5239 58.4561 25.5239H55.1398V28.7528H58.2379V28.7528ZM59.1325 34.9056C59.8743 34.9056 60.4557 34.7714 60.8779 34.5021C61.2996 34.233 61.5107 33.8146 61.5107 33.2473V33.2039C61.5107 32.6948 61.3142 32.2913 60.9216 31.9928C60.5287 31.6951 59.8962 31.5459 59.0234 31.5459H55.1398V34.9058H59.1325V34.9056Z" fill="white"/>
<path d="M69.0425 22.5786H72.4026V37.8511H69.0425V22.5786Z" fill="white"/>
<path d="M77.4919 22.5786H80.5896L87.746 31.9822V22.5786H91.0623V37.8511H88.2043L80.808 28.1423V37.8511H77.4919V22.5786Z" fill="white"/>
<path d="M101.234 22.4692H104.332L110.878 37.8506H107.365L105.969 34.4254H99.5106L98.1144 37.8506H94.6885L101.234 22.4692ZM104.769 31.4579L102.739 26.5054L100.711 31.4579H104.769Z" fill="white"/>
<path d="M114.505 22.5786H117.603L124.759 31.9822V22.5786H128.075V37.8511H125.218L117.821 28.1423V37.8511H114.505V22.5786V22.5786Z" fill="white"/>
<path d="M140.168 38.1123C139.047 38.1123 138.008 37.9085 137.047 37.5015C136.087 37.0946 135.258 36.538 134.56 35.8323C133.862 35.127 133.316 34.2942 132.924 33.3343C132.531 32.3741 132.335 31.3487 132.335 30.2578V30.2143C132.335 29.1234 132.531 28.1018 132.924 27.149C133.316 26.1963 133.862 25.3599 134.56 24.64C135.258 23.9201 136.095 23.3525 137.069 22.9381C138.043 22.5236 139.12 22.3164 140.298 22.3164C141.011 22.3164 141.661 22.3749 142.251 22.4909C142.84 22.6076 143.374 22.7672 143.854 22.9708C144.335 23.1746 144.778 23.4219 145.186 23.7126C145.592 24.0038 145.971 24.3236 146.32 24.6728L144.182 27.1381C143.585 26.6001 142.978 26.1779 142.36 25.8726C141.741 25.5674 141.047 25.4145 140.276 25.4145C139.636 25.4145 139.043 25.5383 138.498 25.7855C137.953 26.0328 137.484 26.3744 137.091 26.8107C136.698 27.247 136.393 27.7527 136.174 28.327C135.957 28.9018 135.848 29.5162 135.848 30.1707V30.2141C135.848 30.8685 135.957 31.487 136.174 32.0684C136.393 32.6505 136.694 33.1594 137.08 33.5957C137.465 34.0319 137.931 34.3777 138.476 34.6322C139.022 34.887 139.622 35.0139 140.276 35.0139C141.149 35.0139 141.887 34.854 142.491 34.534C143.094 34.2144 143.695 33.7779 144.291 33.2249L146.429 35.3849C146.036 35.8069 145.628 36.1852 145.207 36.5193C144.785 36.8541 144.323 37.1412 143.821 37.3814C143.32 37.6212 142.77 37.8034 142.175 37.9267C141.578 38.0502 140.909 38.1123 140.168 38.1123Z" fill="white"/>
<path d="M150.383 22.5786H161.881V25.5678H153.7V28.6659H160.9V31.6548H153.7V34.8621H161.991V37.8511H150.383V22.5786Z" fill="white"/>
</g>
<defs>
<clipPath id="clip0_2953_6962">
<rect width="143.763" height="28.8" fill="white" transform="translate(18.1184 15.6001)"/>
</clipPath>
</defs>
</svg>
