<svg width="180" height="60" viewBox="0 0 180 60" fill="none" xmlns="http://www.w3.org/2000/svg">
<path d="M108.007 24.4159C109.441 24.4159 110.671 24.9965 111.695 26.1576L111.772 25.1075C111.806 24.8513 111.943 24.7232 112.182 24.7232H115.051C115.17 24.7232 115.268 24.7617 115.345 24.8385C115.422 24.9154 115.452 25.005 115.435 25.1075V37.7097C115.435 39.0074 115.089 40.0619 114.398 40.873C113.706 41.6841 112.835 42.2605 111.785 42.602C110.735 42.9435 109.663 43.1143 108.57 43.1143C107.477 43.1143 106.41 42.952 105.369 42.6276C104.361 42.3202 103.507 41.9104 102.807 41.3981C102.705 41.3298 102.653 41.2359 102.653 41.1163C102.636 41.031 102.653 40.9456 102.705 40.8602L103.729 38.9904C103.832 38.8538 103.934 38.7855 104.037 38.7855C104.139 38.7855 104.216 38.8025 104.267 38.8367C104.865 39.1953 105.484 39.4557 106.124 39.6179C106.765 39.7801 107.469 39.8613 108.237 39.8613C109.142 39.8613 109.962 39.6691 110.696 39.2849C111.431 38.9007 111.798 38.2561 111.798 37.3511V36.1216C110.773 37.2998 109.509 37.889 108.007 37.889C106.829 37.889 105.766 37.5859 104.818 36.9797C103.87 36.3734 103.127 35.5538 102.589 34.5207C102.051 33.4876 101.783 32.3648 101.783 31.1524C101.783 29.94 102.051 28.8173 102.589 27.7841C103.127 26.751 103.87 25.9314 104.818 25.3252C105.766 24.719 106.829 24.4159 108.007 24.4159ZM57.0601 24.3903C57.5724 24.3903 58.0078 24.5696 58.3664 24.9282L65.4872 32.5356C65.7946 32.8771 65.9482 33.2784 65.9482 33.7395C65.9482 34.2005 65.7946 34.6018 65.4872 34.9433L58.3664 42.5507C58.0078 42.9264 57.5724 43.1143 57.0601 43.1143H53.884C53.679 43.1143 53.5382 43.0203 53.4613 42.8325C53.3845 42.6447 53.4144 42.4824 53.551 42.3458L59.8521 35.6093H56.3685L52.8338 31.8696H59.8521L52.8338 24.3903H57.0601ZM123.35 24.4159C124.562 24.4159 125.638 24.7104 126.577 25.2996C127.516 25.8887 128.238 26.6827 128.742 27.6817C129.245 28.6806 129.497 29.7692 129.497 30.9475C129.497 31.5281 129.437 31.9507 129.318 32.2154C129.198 32.4801 128.942 32.6124 128.549 32.6124H120.711C120.899 33.3126 121.279 33.8462 121.851 34.2133C122.423 34.5805 123.153 34.764 124.041 34.764C124.468 34.764 124.878 34.7128 125.271 34.6103C125.715 34.4567 126.142 34.2517 126.551 33.9956C126.62 33.9273 126.705 33.8931 126.808 33.8931C126.91 33.8931 127.013 33.9444 127.115 34.0468L128.498 35.3788C128.566 35.4641 128.601 35.5581 128.601 35.6605C128.601 35.763 128.549 35.8654 128.447 35.9679C127.815 36.6168 127.081 37.1163 126.244 37.4663C125.407 37.8164 124.537 37.9829 123.631 37.9658C122.317 37.9658 121.134 37.667 120.084 37.0693C119.034 36.4716 118.218 35.652 117.638 34.6103C117.057 33.5687 116.767 32.4246 116.767 31.178C116.767 29.9315 117.053 28.7916 117.625 27.7585C118.197 26.7254 118.987 25.91 119.994 25.3124C121.002 24.7147 122.12 24.4159 123.35 24.4159ZM78.0638 19.1137C79.242 19.1137 80.2453 19.3272 81.0734 19.7541C81.9016 20.181 82.5335 20.7616 82.9689 21.4959C83.4043 22.2301 83.6221 23.0541 83.6221 23.9676C83.6221 24.8812 83.4043 25.6881 82.9689 26.3882C82.5335 27.0883 81.9998 27.5664 81.368 27.8226C82.3584 28.0958 83.208 28.6422 83.9166 29.4619C84.6253 30.2815 84.9796 31.272 84.9796 32.4331C84.9796 34.2261 84.4161 35.5751 83.2891 36.4802C82.162 37.3852 80.4374 37.8377 78.115 37.8377H71.609C71.4895 37.8377 71.3913 37.7993 71.3144 37.7225C71.2376 37.6456 71.2077 37.5474 71.2248 37.4279V19.5236C71.2248 19.387 71.2589 19.2845 71.3272 19.2162C71.3955 19.1479 71.4895 19.1137 71.609 19.1137H78.0638ZM136.106 20.7018C136.225 20.7018 136.319 20.7402 136.387 20.8171C136.456 20.8939 136.49 20.9921 136.49 21.1116V24.5183H138.616C138.735 24.5183 138.829 24.5568 138.898 24.6336C138.966 24.7104 139 24.8086 139 24.9282V27.3615C139 27.464 138.962 27.5579 138.885 27.6433C138.808 27.7287 138.718 27.7628 138.616 27.7457H136.49V37.4279C136.49 37.5304 136.451 37.6243 136.375 37.7097C136.298 37.795 136.208 37.8292 136.106 37.8121H132.929C132.81 37.8292 132.712 37.795 132.635 37.7097C132.558 37.6243 132.528 37.5304 132.545 37.4279V27.7457H130.419C130.317 27.7628 130.223 27.7287 130.137 27.6433C130.052 27.5579 130.018 27.464 130.035 27.3615V24.9282C130.035 24.7916 130.073 24.6891 130.15 24.6208C130.227 24.5525 130.317 24.5183 130.419 24.5183H132.545V21.1116C132.545 20.975 132.579 20.8726 132.648 20.8043C132.716 20.736 132.81 20.7018 132.929 20.7018H136.106ZM97.9404 20.7018C98.0599 20.7018 98.1581 20.7402 98.235 20.8171C98.3118 20.8939 98.3502 20.9921 98.3502 21.1116V24.5183H100.451C100.57 24.5183 100.668 24.5568 100.745 24.6336C100.822 24.7104 100.852 24.8086 100.835 24.9282V27.3615C100.852 27.464 100.822 27.5579 100.745 27.6433C100.668 27.7287 100.57 27.7628 100.451 27.7457H98.3246V37.4279C98.3417 37.5304 98.3118 37.6243 98.235 37.7097C98.1581 37.795 98.0599 37.8292 97.9404 37.8121H94.7642C94.6618 37.8292 94.5721 37.795 94.4953 37.7097C94.4185 37.6243 94.38 37.5304 94.38 37.4279V27.7457H92.2797C92.1601 27.7628 92.0619 27.7287 91.9851 27.6433C91.9083 27.5579 91.8698 27.464 91.8698 27.3615V24.9282C91.8698 24.7916 91.9083 24.6891 91.9851 24.6208C92.0619 24.5525 92.1601 24.5183 92.2797 24.5183H94.38V21.1116C94.38 20.9921 94.4185 20.8939 94.4953 20.8171C94.5721 20.7402 94.6618 20.7018 94.7642 20.7018H97.9404ZM90.0256 24.5183C90.1451 24.5183 90.2391 24.5568 90.3074 24.6336C90.3757 24.7104 90.4098 24.8001 90.4098 24.9025V37.4023C90.4098 37.5218 90.3714 37.62 90.2946 37.6969C90.2177 37.7737 90.1281 37.8121 90.0256 37.8121H86.8495C86.7299 37.8121 86.6317 37.7737 86.5549 37.6969C86.478 37.62 86.4396 37.5218 86.4396 37.4023V24.9025C86.4396 24.783 86.478 24.6848 86.5549 24.608C86.6317 24.5311 86.7299 24.5013 86.8495 24.5183H90.0256ZM53.0643 16.8853C53.2692 16.8853 53.4101 16.9749 53.4869 17.1542C53.5638 17.3335 53.5339 17.5 53.3973 17.6537L47.1218 24.3903H50.5797L54.1145 28.1299H47.1218L54.1145 35.6093H49.8881C49.3758 35.6093 48.9404 35.4215 48.5818 35.0458L41.4867 27.464C41.1622 27.1224 41 26.7212 41 26.2601C41 25.799 41.1622 25.3978 41.4867 25.0562L48.5818 17.4488C48.9404 17.0731 49.3758 16.8853 49.8881 16.8853H53.0643ZM108.493 28.0531C107.674 28.0531 106.982 28.3519 106.419 28.9496C105.855 29.5473 105.573 30.2773 105.573 31.1396C105.573 32.002 105.851 32.732 106.406 33.3296C106.961 33.9273 107.652 34.2261 108.481 34.2261C109.309 34.2261 110.005 33.9145 110.568 33.2912C111.132 32.6679 111.413 31.9465 111.413 31.1268C111.413 30.3071 111.132 29.59 110.568 28.9752C110.005 28.3605 109.313 28.0531 108.493 28.0531ZM78.2687 29.7949H75.2974V34.1749H78.2687C79.0713 34.1749 79.7116 33.9871 80.1898 33.6114C80.6679 33.2357 80.907 32.6765 80.907 31.9337C80.907 31.1908 80.6679 30.6487 80.1898 30.3071C79.7116 29.9656 79.0713 29.7949 78.2687 29.7949ZM123.375 27.8226C122.692 27.8226 122.103 28.0147 121.608 28.3989C121.113 28.7831 120.797 29.3338 120.66 30.051H125.988C125.868 29.3338 125.57 28.7831 125.091 28.3989C124.613 28.0147 124.041 27.8226 123.375 27.8226ZM77.7052 22.7766H75.2974V26.3626H77.7052C78.3541 26.3626 78.8621 26.2046 79.2292 25.8887C79.5964 25.5728 79.7799 25.1075 79.7799 24.4927C79.7799 23.3486 79.0883 22.7766 77.7052 22.7766ZM88.4375 19.1137C89.0352 19.1137 89.5347 19.3229 89.936 19.7413C90.3373 20.1596 90.5379 20.6677 90.5379 21.2653C90.5379 21.863 90.3373 22.371 89.936 22.7894C89.5347 23.2077 89.0352 23.4169 88.4375 23.4169C87.8399 23.4169 87.3361 23.2077 86.9263 22.7894C86.5165 22.371 86.3116 21.863 86.3116 21.2653C86.3116 20.6677 86.5165 20.1596 86.9263 19.7413C87.3361 19.3229 87.8399 19.1137 88.4375 19.1137Z" fill="white"/>
</svg>
