<svg width="180" height="60" viewBox="0 0 180 60" fill="none" xmlns="http://www.w3.org/2000/svg">
<path d="M34.1899 20.5361L29.4958 39.3578H34.2L37.1345 27.5899H41.8437L43.6033 20.5361H38.8941H34.1899Z" fill="white"/>
<path d="M53.0118 20.5361H48.3077L46.548 27.5899L45.3732 32.2991H40.6691L38.9094 39.3578H43.6136H48.3178L51.2522 27.5899L53.0118 20.5361Z" fill="white"/>
<path d="M78.4033 21.6752C78.407 21.8498 78.3729 22.0231 78.3032 22.1833C78.2336 22.3434 78.1302 22.4866 78 22.603C77.7633 22.8358 77.4446 22.9662 77.1126 22.9662C76.7806 22.9662 76.4619 22.8358 76.2252 22.603C75.9834 22.371 75.8426 22.0533 75.8331 21.7184C75.8237 21.3834 75.9464 21.0583 76.1747 20.8131L76.2352 20.7475C76.4719 20.5147 76.7906 20.3843 77.1226 20.3843C77.4546 20.3843 77.7733 20.5147 78.01 20.7475C78.1403 20.8633 78.2432 21.0066 78.3112 21.1671C78.3792 21.3275 78.4107 21.5011 78.4033 21.6753L78.4033 21.6752ZM57.7312 20.5307H65.516C67.6689 20.5307 69.358 21.1509 70.4471 22.1996C70.8415 22.5968 71.1519 23.0694 71.3598 23.5891C71.5677 24.1089 71.6688 24.6651 71.6572 25.2248V25.2803C71.6572 27.7307 70.1446 28.9962 68.6723 29.6365C70.9059 30.3122 72.7059 31.6029 72.7059 34.1743V34.2298C72.7059 37.4567 69.9933 39.3676 65.874 39.3676H57.7312V20.5307ZM65.153 28.9256C67.7042 28.9256 69.4841 27.7659 69.4841 25.5475V25.497C69.4841 23.6365 68.0017 22.4265 65.2942 22.4265H59.8337V28.9205L65.153 28.9256ZM65.9043 37.4516C68.758 37.4516 70.5328 36.1911 70.5328 34.0785V34.0281C70.5328 31.981 68.8084 30.7961 65.5261 30.7961H59.8337V37.4516L65.9043 37.4516ZM76.0739 25.4517H78.1512V39.3625H76.0739V25.4517ZM83.6369 34.9508V27.2819H80.4907V25.4668H83.6369V20.5307H85.7142V25.4668H91.4268V27.2819H85.7344V34.6835C85.7344 36.5541 86.6167 37.744 88.3007 37.7087C89.3135 37.7286 90.321 37.5576 91.2705 37.2045V39.0146C90.1769 39.464 88.9974 39.6655 87.8167 39.6045C85.3058 39.549 83.6571 37.7793 83.6571 34.9306L83.6369 34.9508ZM94.4368 20.5307H98.904L103.855 28.492L108.801 20.5307H113.269V39.3625H109.159V27.0702L103.86 35.1373H103.749L98.5057 27.176V39.3776H94.4368V20.5307ZM116.954 20.5307H131.163V24.2164H121.079V28.0382H129.474V31.7239H121.074V35.6768H131.294V39.3625H116.954V20.5307ZM139.043 29.7827L132.746 20.5307H137.591L141.544 26.6365L145.527 20.5307H150.236L143.949 29.7323L150.504 39.3625H145.663L141.428 32.9138L137.178 39.3726H132.468L139.043 29.7827Z" fill="white"/>
</svg>
