<svg width="180" height="60" viewBox="0 0 180 60" fill="none" xmlns="http://www.w3.org/2000/svg">
<path d="M108.509 37.8572V15.5H113.002V37.8572H108.509Z" fill="white"/>
<path d="M56.1343 44.4983H46.5002V22.1411H55.7469C60.2408 22.1411 62.8593 24.5903 62.8593 28.4214C62.8593 30.9013 61.1776 32.5039 60.0136 33.0375C61.403 33.6652 63.1815 35.0779 63.1815 38.0624C63.1815 42.2373 60.2408 44.4983 56.1343 44.4983ZM55.3912 26.0355H50.9941V31.1852H55.3912C57.2983 31.1852 58.3654 30.1488 58.3654 28.6095C58.3654 27.0719 57.2983 26.0355 55.3912 26.0355ZM55.6818 35.1104H50.9941V40.6056H55.6818C57.7191 40.6056 58.6876 39.3503 58.6876 37.8418C58.6876 36.335 57.7173 35.1104 55.6818 35.1104Z" fill="white"/>
<path d="M76.8885 35.3293V44.4983H72.4263V35.3293L65.5076 22.1411H70.3889L74.6891 31.1527L78.9242 22.1411H83.8055L76.8885 35.3293Z" fill="white"/>
<path d="M96.546 44.4983H86.9119V22.1411H96.1586C100.652 22.1411 103.271 24.5903 103.271 28.4214C103.271 30.9013 101.589 32.5039 100.425 33.0375C101.815 33.6652 103.593 35.0779 103.593 38.0624C103.593 42.2373 100.652 44.4983 96.546 44.4983ZM95.8029 26.0355H91.4058V31.1852H95.8029C97.71 31.1852 98.7771 30.1488 98.7771 28.6095C98.7771 27.0719 97.71 26.0355 95.8029 26.0355ZM96.0934 35.1104H91.4058V40.6056H96.0934C98.1308 40.6056 99.0993 39.3503 99.0993 37.8418C99.0993 36.335 98.1308 35.1104 96.0934 35.1104Z" fill="white"/>
<path d="M127.486 26.0355V44.5H122.992V26.0355H116.979V22.1411H133.5V26.0355H127.486Z" fill="white"/>
</svg>
