<svg width="180" height="60" viewBox="0 0 180 60" fill="none" xmlns="http://www.w3.org/2000/svg">
<path d="M89.3182 32.9123C89.3302 37.2757 86.2309 41.0281 81.9439 41.8406C77.6568 42.6531 73.3994 40.2951 71.8139 36.2299L75.2673 32.7681V32.9123C75.2667 35.2885 76.9447 37.3341 79.2751 37.7982C81.6055 38.2623 83.9392 37.0156 84.849 34.8205C85.7588 32.6254 84.9912 30.0933 83.0158 28.7728C81.0403 27.4523 78.4072 27.7112 76.7267 29.3911L66.7909 39.3269C64.1975 41.923 60.2955 42.7007 56.9049 41.2974C53.5144 39.894 51.3035 36.586 51.3035 32.9166C51.3035 29.2471 53.5144 25.9391 56.9049 24.5357C60.2955 23.1324 64.1975 23.9102 66.7909 26.5062C67.3032 27.0246 67.5 27.7769 67.3072 28.4797C67.1145 29.1826 66.5614 29.7292 65.8563 29.9137C65.1513 30.0982 64.4013 29.8925 63.889 29.3741C61.9389 27.4307 58.7831 27.4344 56.8375 29.3823C54.8918 31.3302 54.8918 34.486 56.8375 36.4339C58.7831 38.3818 61.9389 38.3854 63.889 36.442L73.8418 26.5487C76.4326 23.9523 80.3331 23.1737 83.7221 24.5766C87.1112 25.9794 89.3204 29.2868 89.3182 32.9547V32.9123ZM128.697 32.9123C128.697 37.2713 125.597 41.0144 121.314 41.8257C117.032 42.6371 112.777 40.2871 111.184 36.2299L114.637 32.7681V32.9123C114.637 35.2885 116.315 37.3341 118.645 37.7982C120.975 38.2623 123.309 37.0156 124.219 34.8205C125.129 32.6254 124.361 30.0933 122.386 28.7728C120.41 27.4523 117.777 27.7112 116.097 29.3911L106.195 39.276C103.612 41.8985 99.7003 42.6987 96.2956 41.3007C92.891 39.9027 90.6701 36.5843 90.6758 32.9038V20.1765C90.6267 19.4161 91.0046 18.6914 91.6562 18.2963C92.3078 17.9012 93.125 17.9012 93.7766 18.2963C94.4282 18.6914 94.8061 19.4161 94.757 20.1765V25.3438C97.2688 23.6895 100.437 23.3878 103.216 24.5384C105.995 25.689 108.023 28.1423 108.63 31.0881L113.212 26.5062C115.805 23.9125 119.705 23.1356 123.094 24.5376C126.483 25.9397 128.694 29.2447 128.697 32.9123ZM104.735 32.9123C104.735 30.1569 102.502 27.9232 99.7461 27.9232C96.9907 27.9232 94.757 30.1569 94.757 32.9123C94.757 35.6677 96.9907 37.9014 99.7461 37.9014C101.07 37.9037 102.34 37.3788 103.276 36.4426C104.213 35.5065 104.738 34.2362 104.735 32.9123Z" fill="white"/>
</svg>
