<svg width="180" height="60" viewBox="0 0 180 60" fill="none" xmlns="http://www.w3.org/2000/svg">
<path d="M56.6162 25.5836C52.5489 25.5836 49.3709 28.6712 49.3709 32.8045C49.3709 36.9378 52.4686 39.999 56.6162 39.999C60.7638 39.999 63.9153 36.885 63.9153 32.7781C63.9153 28.6976 60.8177 25.5836 56.6162 25.5836ZM56.6437 37.0202C54.3275 37.0202 52.6302 35.2213 52.6302 32.8055C52.6302 30.3623 54.3 28.5645 56.6162 28.5645C58.9598 28.5645 60.6561 30.3897 60.6561 32.8055C60.6561 35.2213 58.9598 37.0202 56.6437 37.0202ZM64.8036 28.725H66.8239V39.7317H70.0558V25.8519H64.8036V28.725ZM41.2374 28.5634C42.9346 28.5634 44.2812 29.6102 44.7924 31.1672H48.2133C47.5934 27.8388 44.8463 25.5836 41.2648 25.5836C37.1975 25.5836 34.0195 28.6712 34.0195 32.8055C34.0195 36.9399 37.1173 40 41.2648 40C44.766 40 47.567 37.7448 48.1869 34.3889H44.7924C44.3077 35.9459 42.961 37.0202 41.2638 37.0202C38.9202 37.0202 37.2778 35.2213 37.2778 32.8055C37.2788 30.3623 38.8948 28.5634 41.2374 28.5634ZM126.211 31.463L123.841 31.1144C122.71 30.9538 121.902 30.5778 121.902 29.6916C121.902 28.725 122.953 28.2423 124.38 28.2423C125.942 28.2423 126.939 28.9131 127.154 30.0137H130.279C129.928 27.2219 127.773 25.5846 124.461 25.5846C121.04 25.5846 118.778 27.3297 118.778 29.7993C118.778 32.1612 120.26 33.5312 123.249 33.9601L125.619 34.3087C126.777 34.4692 127.424 34.9266 127.424 35.7853C127.424 36.886 126.293 37.3423 124.73 37.3423C122.818 37.3423 121.74 36.5638 121.579 35.3829H118.401C118.698 38.0944 120.825 40 124.703 40C128.232 40 130.574 38.3892 130.574 35.6237C130.574 33.1541 128.878 31.8654 126.211 31.463ZM68.4398 20.1342C67.2548 20.1342 66.3658 20.9929 66.3658 22.1739C66.3658 23.3548 67.2539 24.2136 68.4398 24.2136C69.6248 24.2136 70.5142 23.3548 70.5142 22.1739C70.5142 20.9929 69.6248 20.1342 68.4398 20.1342ZM115.869 30.6042C115.869 27.5979 114.038 25.5846 110.16 25.5846C106.497 25.5846 104.45 27.4374 104.045 30.283H107.251C107.412 29.1824 108.274 28.2697 110.106 28.2697C111.749 28.2697 112.557 28.9943 112.557 29.8806C112.557 31.0351 111.075 31.3298 109.244 31.5179C106.766 31.7862 103.696 32.6449 103.696 35.8667C103.696 38.3637 105.555 39.9736 108.517 39.9736C110.833 39.9736 112.288 39.0071 113.015 37.4765C113.123 38.8455 114.147 39.7317 115.575 39.7317H117.46V36.8596H115.87V30.6042H115.869ZM112.691 34.0942C112.691 35.9469 111.075 37.3159 109.109 37.3159C107.896 37.3159 106.873 36.8057 106.873 35.7325C106.873 34.3635 108.516 33.9875 110.025 33.8269C111.479 33.6928 112.287 33.3706 112.691 32.7527V34.0942ZM95.5348 25.5836C93.7298 25.5836 92.2217 26.3357 91.1445 27.5969V20H87.9127V39.7317H91.0905V37.9064C92.1677 39.2215 93.7036 40 95.5348 40C99.413 40 102.349 36.9399 102.349 32.8055C102.349 28.6712 99.3592 25.5836 95.5348 25.5836ZM95.0502 37.0202C92.7339 37.0202 91.0367 35.2213 91.0367 32.8055C91.0367 30.3897 92.7605 28.5645 95.0764 28.5645C97.4202 28.5645 99.0623 30.3633 99.0623 32.8055C99.0623 35.2213 97.3661 37.0202 95.0502 37.0202ZM80.1823 25.5836C78.0817 25.5836 76.7077 26.4424 75.8998 27.6508V25.8519H72.6942V39.7307H75.9261V32.1876C75.9261 30.0666 77.2727 28.5634 79.2658 28.5634C81.1245 28.5634 82.282 29.8786 82.282 31.7852V39.7317H85.5139V31.5443C85.5152 28.0533 83.7111 25.5836 80.1823 25.5836ZM145.98 32.3492C145.98 28.3764 143.072 25.5846 139.166 25.5846C135.019 25.5846 131.975 28.6986 131.975 32.8055C131.975 37.1279 135.234 40 139.22 40C142.587 40 145.226 38.0131 145.899 35.1949H142.532C142.047 36.4297 140.862 37.1279 139.273 37.1279C137.199 37.1279 135.636 35.8392 135.287 33.584H145.98V32.3492H145.98ZM135.476 31.275C135.988 29.3419 137.442 28.4029 139.112 28.4029C140.944 28.4029 142.344 29.4497 142.667 31.275H135.476Z" fill="white"/>
</svg>
