<svg width="180" height="60" viewBox="0 0 180 60" fill="none" xmlns="http://www.w3.org/2000/svg">
<g clip-path="url(#clip0_2953_7002)">
<path fill-rule="evenodd" clip-rule="evenodd" d="M21.6153 16.8003L10.3589 23.3864H10.3291V36.589L21.5657 43.2003L32.8271 36.594V23.4066L21.6153 16.8003ZM11.481 24.0773L21.6153 18.1468L31.7049 24.0773V35.9384L21.6153 41.869L11.481 35.9384V24.0773ZM25.8307 22.6603H17.3449L16.3568 27.0578H26.8536L25.8307 22.6603ZM24.3563 27.7184L23.4527 30.1742L23.7158 32.9177L21.6005 32.9278H19.5052L19.7883 30.1742L18.8646 27.7184H24.3563ZM26.8734 28.5405L24.3859 30.1845V33.1044L22.489 34.9552V35.8276L24.3213 37.5372H25.8506L29.7087 30.709L26.8734 28.5405ZM18.8549 30.1841L16.3374 28.5603L13.4923 30.7086L17.3703 37.557H18.9195L20.7516 35.8272V34.9548L18.8549 33.104V30.1841ZM97.8829 32.3628V26.3113H100.47V23.8856H97.8829V20.4967H95.1023V23.8856H93.5581V26.3113H95.1023V32.7763C95.1023 35.4743 96.5522 36.3972 98.5781 36.3972H100.465V33.8757H99.3725C98.4341 33.8757 97.8829 33.4572 97.8829 32.3628ZM45.7515 36.0246C46.5188 36.3432 47.3412 36.5024 48.1702 36.4928C49.1189 36.5292 50.063 36.3414 50.9281 35.9441C51.7932 35.5468 52.5556 34.9509 53.1553 34.2034L51.477 32.5241C51.0862 32.9865 50.604 33.3602 50.0616 33.6208C49.5192 33.8815 48.9289 34.0233 48.329 34.037C46.184 34.037 44.6944 32.2215 44.6944 30.048C44.6944 27.8745 46.1492 26.0993 48.1702 26.0993C49.5753 26.0993 50.4691 26.7297 51.3232 27.6424L53.0461 25.7513C52.4478 25.048 51.7007 24.4913 50.8606 24.1227C50.0205 23.7542 49.1092 23.5834 48.195 23.6232C47.3603 23.6184 46.5331 23.783 45.7619 24.1073C44.9907 24.4316 44.2911 24.9092 43.7042 25.5119C43.1172 26.1146 42.6547 26.8304 42.3439 27.6171C42.033 28.4038 41.8801 29.2458 41.8939 30.0933C41.8813 30.9352 42.0348 31.771 42.3454 32.5516C42.656 33.3322 43.1175 34.0417 43.7024 34.6382C44.2875 35.2347 44.9841 35.7061 45.7515 36.0246ZM58.4184 36.4931H55.6329V23.6487H58.4184V26.6745C59.1732 24.8287 60.5784 23.568 62.7185 23.6487V26.6391H62.5546C60.1166 26.6391 58.4184 28.2479 58.4184 31.5158V36.4931ZM77.2818 23.6234L71.1298 39.9526H68.3095L69.6551 36.4981L64.3868 23.6234H67.3512L70.9461 33.1345L74.397 23.6234H77.2818ZM86.13 36.4679C85.3215 36.4733 84.5239 36.2782 83.8066 35.8994C83.0892 35.5206 82.4737 34.9697 82.0137 34.2943V39.9475H79.2133V23.6234H81.9938V25.9381C82.4303 25.2293 83.0371 24.6449 83.7572 24.24C84.4773 23.8351 85.287 23.6229 86.1102 23.6234C88.985 23.6234 91.7657 25.9381 91.7657 30.0482C91.7657 34.1582 89.0297 36.4679 86.13 36.4679ZM85.4845 26.0743C83.6026 26.0743 81.9442 27.6426 81.9442 30.0482C81.9442 32.4537 83.6026 34.017 85.4845 34.017C87.3663 34.017 88.9602 32.5041 88.9602 30.0482C88.9602 27.5922 87.3713 26.0743 85.4845 26.0743ZM106.808 36.0559C107.591 36.3674 108.428 36.5161 109.269 36.4931C110.552 36.4927 111.806 36.1039 112.871 35.3764C113.935 34.6489 114.762 33.6157 115.246 32.4086C115.729 31.2016 115.848 29.8754 115.586 28.5996C115.324 27.3239 114.694 26.1562 113.776 25.2459C112.857 24.3356 111.693 23.7239 110.43 23.4888C109.169 23.2538 107.867 23.4062 106.69 23.9264C105.513 24.4467 104.516 25.3112 103.826 26.4097C103.136 27.5082 102.783 28.7907 102.814 30.0935C102.811 30.9478 102.978 31.794 103.304 32.5817C103.629 33.3695 104.107 34.0828 104.709 34.6796C105.311 35.2764 106.025 35.7443 106.808 36.0559ZM105.614 30.0482C105.614 27.8747 107.039 26.0995 109.269 26.0995C111.453 26.0995 112.992 27.92 112.992 30.0935C112.992 32.2671 111.568 34.0372 109.318 34.0372C107.153 34.0372 105.614 32.2217 105.614 30.0482ZM139.916 36.0559C140.7 36.3674 141.536 36.5161 142.377 36.4931C143.66 36.4927 144.914 36.1039 145.979 35.3764C147.043 34.6489 147.87 33.6157 148.354 32.4086C148.837 31.2016 148.956 29.8754 148.694 28.5996C148.433 27.3239 147.802 26.1562 146.885 25.2459C145.966 24.3356 144.802 23.7239 143.539 23.4888C142.277 23.2538 140.975 23.4062 139.798 23.9264C138.621 24.4467 137.625 25.3112 136.935 26.4097C136.244 27.5082 135.892 28.7907 135.922 30.0935C135.92 30.9478 136.086 31.794 136.412 32.5817C136.738 33.3695 137.216 34.0828 137.817 34.6796C138.419 35.2764 139.133 35.7443 139.916 36.0559ZM138.718 30.0482C138.718 27.8747 140.142 26.0995 142.377 26.0995C144.557 26.0995 146.101 27.92 146.101 30.0935C146.101 32.2671 144.676 34.0372 142.422 34.0372C140.257 34.0372 138.718 32.2217 138.718 30.0482ZM169.672 28.3436C169.672 25.3279 168.063 23.6234 165.421 23.6234C164.613 23.6179 163.816 23.813 163.098 24.1918C162.381 24.5706 161.765 25.1216 161.305 25.7969C160.978 25.1166 160.462 24.5483 159.82 24.1622C159.179 23.776 158.44 23.5887 157.695 23.6234C155.833 23.6234 154.775 24.6521 153.991 25.7515V23.6234H151.211V36.4779H153.951V29.2614C153.951 27.3451 154.984 26.1801 156.548 26.1801C158.112 26.1801 159.031 27.2543 159.031 29.1656V36.4779H161.811V29.2362C161.811 27.2543 162.825 26.1801 164.409 26.1801C165.993 26.1801 166.891 27.2442 166.891 29.2059V36.493H169.672V28.3436ZM120.868 35.3229V33.9008C120.869 33.8872 120.869 33.8735 120.866 33.8601C120.864 33.8473 120.86 33.8346 120.856 33.8225C120.85 33.8103 120.843 33.7988 120.836 33.7883C120.834 33.7863 120.833 33.7843 120.831 33.7823L120.827 33.7783L120.822 33.7722C120.818 33.7677 120.813 33.7635 120.809 33.7596L119.597 33.0435C119.571 33.0284 119.543 33.0204 119.515 33.0204C119.486 33.0204 119.457 33.0284 119.433 33.0435L118.197 33.7596C118.172 33.7738 118.152 33.7945 118.137 33.8193C118.124 33.8441 118.117 33.8722 118.117 33.9008V35.3229C118.116 35.3516 118.123 35.3799 118.137 35.4048C118.152 35.4298 118.171 35.4502 118.197 35.4641L119.413 36.1802C119.438 36.1954 119.466 36.2033 119.495 36.2033C119.523 36.2033 119.552 36.1954 119.577 36.1802L120.789 35.4641C120.807 35.454 120.822 35.4403 120.835 35.4239C120.836 35.4225 120.837 35.421 120.838 35.4196C120.839 35.4179 120.841 35.4162 120.842 35.4144L120.844 35.4102L120.847 35.4048C120.861 35.3799 120.869 35.3516 120.868 35.3229ZM126.954 35.9636C127.715 36.297 128.534 36.4719 129.363 36.4781C130.306 36.5217 131.246 36.3447 132.109 35.9608C132.974 35.5769 133.74 34.9965 134.349 34.2643L132.7 32.5496C132.303 33.0096 131.814 33.3791 131.267 33.6337C130.719 33.8884 130.125 34.0225 129.522 34.0272C127.387 33.997 125.927 32.1311 125.967 29.9626C126.006 27.7941 127.511 26.0492 129.537 26.0845C130.141 26.1013 130.734 26.2539 131.273 26.5311C131.812 26.8084 132.285 27.2036 132.655 27.6882L134.418 25.8324C133.832 25.1182 133.096 24.5478 132.262 24.1635C131.43 23.7793 130.522 23.5913 129.606 23.6135C128.775 23.5954 127.947 23.746 127.173 24.0565C126.399 24.367 125.693 24.8312 125.097 25.4219C124.502 26.0126 124.028 26.718 123.705 27.4967C123.38 28.2755 123.213 29.1121 123.211 29.9575C123.182 30.7989 123.319 31.6378 123.614 32.4244C123.91 33.211 124.358 33.9296 124.931 34.5374C125.505 35.1454 126.192 35.6303 126.954 35.9636Z" fill="white"/>
</g>
<defs>
<clipPath id="clip0_2953_7002">
<rect width="159.343" height="26.4" fill="white" transform="translate(10.3286 16.7998)"/>
</clipPath>
</defs>
</svg>
