<svg width="180" height="60" viewBox="0 0 180 60" fill="none" xmlns="http://www.w3.org/2000/svg">
<path fill-rule="evenodd" clip-rule="evenodd" d="M55.015 15.6117C55.0015 15.6172 54.7695 15.634 54.4994 15.649C54.2293 15.664 53.92 15.6919 53.8119 15.711C53.7039 15.7301 53.5326 15.7526 53.4314 15.7612C53.3301 15.7697 53.192 15.7916 53.1244 15.8098C53.0569 15.8279 52.9354 15.85 52.8544 15.8588C52.7733 15.8677 52.6573 15.8897 52.5966 15.9078C52.5358 15.9259 52.4419 15.9474 52.3879 15.9556C52.2398 15.978 51.6698 16.1291 51.4057 16.2159C51.3247 16.2426 51.2418 16.2645 51.2216 16.2645C51.2013 16.2646 51.1539 16.2808 51.1162 16.3005C51.0785 16.3202 51.0067 16.3439 50.9566 16.3531C50.9065 16.3623 50.8271 16.3904 50.78 16.4155C50.7329 16.4405 50.6715 16.461 50.6435 16.461C50.6155 16.461 50.5711 16.4773 50.5449 16.4971C50.5187 16.517 50.4821 16.5336 50.4635 16.534C50.4291 16.5348 50.1853 16.6327 50.0595 16.6963C50.0212 16.7156 49.9781 16.7314 49.9637 16.7314C49.9493 16.7314 49.8811 16.7581 49.8122 16.7907C49.7434 16.8233 49.6097 16.8855 49.5151 16.9289C49.2888 17.0328 48.856 17.2511 48.7172 17.3313C48.6564 17.3664 48.5735 17.4122 48.533 17.4331C48.4925 17.4539 48.4152 17.4977 48.3611 17.5305C48.3071 17.5632 48.2353 17.6043 48.2014 17.6216C48.1417 17.6524 47.9139 17.7972 47.779 17.8901C47.7424 17.9154 47.706 17.936 47.6982 17.936C47.6903 17.936 47.624 17.9802 47.5509 18.0343C47.4778 18.0884 47.4109 18.1326 47.4024 18.1326C47.3864 18.1326 47.3092 18.1895 46.9592 18.4589C46.8498 18.5431 46.7298 18.6341 46.6926 18.6612C45.8749 19.2545 44.4693 20.7159 43.9145 21.5496C43.883 21.5969 43.8175 21.691 43.769 21.7586C43.6807 21.8817 43.6017 21.9996 43.4234 22.2748C43.3132 22.4448 43.3272 22.4215 43.1191 22.7794C42.9329 23.0994 42.5848 23.7725 42.4773 24.0201C42.3431 24.3293 42.3055 24.4125 42.2701 24.4787C42.2509 24.5146 42.2352 24.5581 42.2352 24.5754C42.2352 24.5927 42.2149 24.6519 42.1901 24.7068C42.1209 24.86 42.0429 25.069 42.0242 25.1509C42.015 25.1915 41.9987 25.2359 41.9881 25.2496C41.9774 25.2633 41.9553 25.3297 41.9388 25.3971C41.9224 25.4645 41.9003 25.5309 41.8897 25.5446C41.8791 25.5583 41.857 25.6247 41.8405 25.6921C41.8241 25.7595 41.7971 25.8423 41.7806 25.8761C41.7641 25.9099 41.7431 25.9818 41.7338 26.0359C41.7245 26.09 41.7019 26.1785 41.6835 26.2326C41.6457 26.344 41.5826 26.5986 41.5341 26.8348C41.5161 26.9227 41.4902 27.0444 41.4766 27.1052C41.4301 27.313 41.3693 27.6581 41.338 27.8919C41.3208 28.0203 41.2947 28.2084 41.28 28.3098C41.1695 29.0715 41.1753 31.6148 41.2879 31.7974C41.2949 31.8087 41.3173 31.953 41.3377 32.1181C41.3581 32.2831 41.3804 32.4271 41.3871 32.438C41.3938 32.449 41.4163 32.571 41.4371 32.7092C41.4578 32.8474 41.4842 32.9788 41.4958 33.0012C41.5074 33.0236 41.5245 33.0972 41.5338 33.1648C41.5432 33.2324 41.5666 33.343 41.5859 33.4106C41.6206 33.5326 41.6656 33.7036 41.7313 33.9637C41.7652 34.0979 41.8201 34.2769 41.8706 34.4185C41.8851 34.4591 41.9118 34.542 41.93 34.6029C41.9482 34.6637 41.9921 34.7909 42.0275 34.8856C42.0629 34.9802 42.1065 35.1019 42.1243 35.156C42.1421 35.2101 42.1742 35.2875 42.1958 35.3281C42.2173 35.3686 42.2349 35.4167 42.235 35.4349C42.2351 35.4531 42.2509 35.4973 42.2701 35.5332C42.3055 35.5994 42.3431 35.6826 42.4773 35.9918C42.6282 36.3395 43.108 37.2406 43.3155 37.5658C43.3357 37.5976 43.391 37.686 43.4383 37.7624C43.5121 37.8817 43.6507 38.0861 43.8545 38.3763C44.0118 38.6003 44.4195 39.1319 44.5394 39.2693C45.0701 39.8774 45.3037 40.1241 45.7218 40.5178C46.0297 40.8078 46.4977 41.2094 46.6926 41.3507C46.7298 41.3778 46.8464 41.4663 46.9516 41.5474C47.2045 41.7425 47.3645 41.8606 47.4174 41.8912C47.4412 41.9049 47.5119 41.9521 47.5745 41.996C47.6372 42.04 47.6938 42.0759 47.7005 42.0759C47.7071 42.0759 47.7424 42.0966 47.779 42.1218C47.9139 42.2147 48.1417 42.3595 48.2014 42.3903C48.2353 42.4076 48.3071 42.4487 48.3611 42.4814C48.4152 42.5142 48.4925 42.558 48.533 42.5789C48.5735 42.5997 48.6564 42.6455 48.7172 42.6806C48.856 42.7608 49.2888 42.9791 49.5151 43.083C49.6097 43.1265 49.7434 43.1886 49.8122 43.2212C49.8811 43.2538 49.9493 43.2805 49.9637 43.2805C49.9781 43.2805 50.0212 43.2963 50.0595 43.3156C50.1853 43.3792 50.4291 43.4771 50.4635 43.4779C50.4821 43.4783 50.5187 43.4949 50.5449 43.5148C50.5711 43.5346 50.6155 43.5509 50.6435 43.5509C50.6715 43.5509 50.7329 43.5714 50.78 43.5964C50.8271 43.6215 50.9098 43.6501 50.9638 43.6601C51.0178 43.6701 51.073 43.6872 51.0865 43.6983C51.1 43.7094 51.1774 43.737 51.2584 43.7597C51.3394 43.7823 51.4996 43.8281 51.6144 43.8613C51.7292 43.8945 51.8729 43.9319 51.9336 43.9444C51.9944 43.957 52.1049 43.9835 52.1791 44.0033C52.4631 44.0792 52.664 44.1229 52.8298 44.1448C52.9243 44.1573 53.0624 44.1826 53.1367 44.2011C53.211 44.2196 53.3491 44.2419 53.4436 44.2507C53.5382 44.2595 53.7039 44.2822 53.8119 44.301C54.5676 44.4325 56.437 44.4325 57.2494 44.301C57.3709 44.2813 57.5477 44.2586 57.6422 44.2504C57.7367 44.2422 57.8693 44.2205 57.9368 44.2023C58.0044 44.184 58.1149 44.162 58.1824 44.1535C58.296 44.1391 58.6125 44.0725 58.8453 44.014C58.8993 44.0004 59.0098 43.9751 59.0908 43.9578C59.1719 43.9405 59.2989 43.9079 59.3732 43.8854C59.4475 43.8629 59.558 43.8294 59.6187 43.811C59.6795 43.7925 59.8287 43.7477 59.9502 43.7114C60.0717 43.6751 60.2005 43.6296 60.2363 43.6104C60.2722 43.5912 60.3145 43.5755 60.3304 43.5755C60.3462 43.5755 60.4302 43.5478 60.5169 43.514C60.6036 43.4802 60.7438 43.4256 60.8284 43.3926C60.9131 43.3596 61.0153 43.3154 61.0555 43.2944C61.0958 43.2734 61.1431 43.2561 61.1607 43.256C61.1783 43.256 61.2335 43.2348 61.2835 43.2091C61.3334 43.1834 61.4737 43.1163 61.5952 43.0601C61.7168 43.0039 61.8328 42.9475 61.8531 42.9348C61.8733 42.922 61.9175 42.9006 61.9513 42.8871C61.985 42.8736 62.0292 42.8521 62.0495 42.8394C62.0697 42.8266 62.1637 42.7762 62.2582 42.7273C62.3527 42.6783 62.4743 42.6114 62.5283 42.5785C62.5823 42.5457 62.6596 42.5016 62.7001 42.4807C62.8076 42.4251 63.068 42.2642 63.3508 42.0785C63.4251 42.0298 63.4969 41.9844 63.5104 41.9776C63.6659 41.8997 64.3088 41.4097 64.8629 40.9466C65.5759 40.3507 66.7286 39.0906 67.1811 38.4124C67.2013 38.382 67.2406 38.3283 67.2683 38.293C67.3135 38.2355 67.5069 37.9421 67.6632 37.6941C67.6951 37.6434 67.7477 37.5605 67.7799 37.5097C67.8123 37.4591 67.8693 37.3622 67.9067 37.2946C67.9441 37.227 67.9907 37.1441 68.0103 37.1103C68.1141 36.9312 68.1995 36.7691 68.3596 36.4466C68.457 36.2505 68.5466 36.0735 68.5588 36.0532C68.5709 36.033 68.5877 35.9998 68.596 35.9795C68.6043 35.9592 68.6303 35.8984 68.6537 35.8443C68.7964 35.5154 68.8261 35.4422 68.8261 35.4192C68.8261 35.405 68.8422 35.3622 68.8618 35.3239C68.8814 35.2856 68.9214 35.1879 68.9507 35.1068C68.98 35.0257 69.0238 34.9095 69.0481 34.8487C69.1166 34.6772 69.2477 34.2639 69.3053 34.0375C69.3243 33.9631 69.368 33.8027 69.4025 33.681C69.4369 33.5593 69.4769 33.3934 69.4912 33.3123C69.5056 33.2312 69.5317 33.1261 69.5491 33.0788C69.5666 33.0314 69.5887 32.9264 69.5982 32.8452C69.6077 32.7641 69.6303 32.6424 69.6485 32.5748C69.6666 32.5072 69.6882 32.38 69.6965 32.2921C69.7048 32.2042 69.7273 32.0494 69.7466 31.948C69.7658 31.8466 69.7936 31.5921 69.8084 31.3826C69.8231 31.173 69.845 30.9075 69.857 30.7926C69.869 30.6777 69.8788 30.3237 69.8788 30.006C69.8788 29.6882 69.869 29.3342 69.857 29.2193C69.845 29.1044 69.8231 28.8389 69.8084 28.6293C69.7936 28.4198 69.7658 28.1653 69.7466 28.0639C69.7273 27.9625 69.7048 27.8077 69.6965 27.7198C69.6882 27.6319 69.6666 27.5047 69.6485 27.4371C69.6303 27.3695 69.6077 27.2478 69.5981 27.1667C69.5885 27.0856 69.5705 26.9919 69.558 26.9585C69.5455 26.9251 69.5195 26.82 69.5002 26.7249C69.4809 26.6299 69.4367 26.4526 69.4019 26.3309C69.3671 26.2092 69.3233 26.0488 69.3046 25.9744C69.2701 25.8379 69.2464 25.7636 69.1156 25.3845C69.076 25.2695 69.0291 25.1257 69.0114 25.0649C68.9937 25.004 68.9614 24.9211 68.9396 24.8805C68.9179 24.84 68.9 24.7895 68.8999 24.7684C68.8999 24.7474 68.8836 24.7087 68.8637 24.6824C68.8439 24.6562 68.8272 24.6181 68.8267 24.5978C68.8261 24.5775 68.7985 24.5056 68.7653 24.438C68.7321 24.3704 68.7045 24.3042 68.7041 24.2908C68.7023 24.2336 68.2037 23.2351 68.0103 22.9016C67.9907 22.8678 67.9438 22.7849 67.906 22.7173C67.7963 22.5211 67.3593 21.8372 67.267 21.7174C67.24 21.6823 67.2013 21.6288 67.1811 21.5985C67.1608 21.5682 67.1 21.4856 67.046 21.4149C66.992 21.3442 66.9257 21.2555 66.8987 21.2177C66.8717 21.18 66.7667 21.049 66.6655 20.9267C66.5642 20.8044 66.4217 20.6318 66.3489 20.5432C66.1592 20.3123 65.122 19.2802 64.8629 19.0646C64.3422 18.6311 63.5582 18.0343 63.5096 18.0343C63.5015 18.0343 63.4586 18.0067 63.4144 17.9729C63.3701 17.9391 63.3211 17.9114 63.3055 17.9114C63.2899 17.9114 63.2771 17.9024 63.2771 17.8914C63.2771 17.8804 63.2412 17.8524 63.1973 17.8292C63.1534 17.8061 63.0402 17.738 62.9457 17.678C62.8511 17.6179 62.7407 17.5518 62.7001 17.531C62.6596 17.5102 62.5823 17.4667 62.5283 17.4344C62.4743 17.402 62.3527 17.335 62.2582 17.2855C62.1637 17.2359 62.0697 17.185 62.0495 17.1723C62.0292 17.1597 61.985 17.1383 61.9513 17.1248C61.9175 17.1113 61.8733 17.0899 61.8531 17.0771C61.8328 17.0644 61.7168 17.008 61.5952 16.9518C61.4737 16.8955 61.3301 16.8284 61.2761 16.8027C61.222 16.7769 61.1668 16.7556 61.1533 16.7552C61.1398 16.7548 61.0735 16.7273 61.006 16.694C60.9385 16.6608 60.8703 16.6335 60.8545 16.6333C60.8387 16.6332 60.7945 16.617 60.7563 16.5973C60.7181 16.5776 60.6039 16.5323 60.5026 16.4967C60.4014 16.4611 60.2853 16.418 60.2448 16.4009C60.1794 16.3733 59.947 16.2989 59.6187 16.2005C59.558 16.1823 59.4475 16.149 59.3732 16.1265C59.2989 16.104 59.1719 16.0713 59.0908 16.0538C59.0098 16.0362 58.8993 16.0105 58.8453 15.9965C58.6165 15.9372 58.3908 15.8888 58.2069 15.8594C58.0989 15.8422 57.9663 15.8167 57.9123 15.8027C57.8583 15.7887 57.7312 15.7702 57.6299 15.7615C57.5286 15.7528 57.3574 15.7302 57.2494 15.7112C56.888 15.6478 55.12 15.5691 55.015 15.6117ZM54.6655 20.0317C54.672 20.0486 54.6668 20.1786 54.6539 20.3205C54.4998 22.0159 55.0028 23.5787 55.9854 24.4574C56.1773 24.6291 56.1704 24.6412 55.8345 24.7201C55.1982 24.8697 54.8366 24.8168 52.7339 24.2668C52.1816 24.1224 51.753 24.044 51.6272 24.0645C51.4809 24.0882 51.4732 24.0589 51.5635 23.819C52.1275 22.3203 53.0575 21.1165 54.378 20.1761C54.6409 19.9888 54.6478 19.9853 54.6655 20.0317ZM81.8515 20.4201C81.784 20.4309 81.6108 20.4561 81.4666 20.4759C81.3224 20.4958 81.1938 20.5186 81.1807 20.5267C81.1677 20.5348 81.0868 20.5574 81.0009 20.5769C80.7383 20.6366 80.1963 20.8379 79.9707 20.9596C79.8624 21.018 79.5504 21.1974 79.4455 21.2616C78.6006 21.7785 77.66 22.9687 77.4791 23.7497C77.4697 23.7903 77.4522 23.836 77.4402 23.8514C77.4282 23.8667 77.4025 23.9607 77.3831 24.0603C77.3636 24.1599 77.3369 24.2779 77.3237 24.3225C77.2897 24.4371 77.244 25.213 77.2487 25.5934C77.2509 25.7692 77.2516 25.9265 77.2502 25.9431C77.2469 25.9843 77.1296 26.0417 76.9864 26.0722C76.8578 26.0996 76.5492 26.1781 76.3516 26.2337C76.07 26.313 75.9291 26.348 75.842 26.3601C75.7161 26.3776 75.7212 26.3511 75.7217 26.9858C75.7222 27.6655 75.6193 27.5789 76.4207 27.5739C77.1214 27.5695 77.2102 27.5765 77.2341 27.6388C77.2736 27.7418 77.2489 35.4507 77.209 35.48C77.1872 35.496 77.0959 35.5155 77.0061 35.5235C76.9162 35.5315 76.7322 35.5541 76.5972 35.5738C76.4621 35.5935 76.2246 35.6208 76.0693 35.6345C75.7491 35.6628 75.554 36.413 75.7404 36.8993C75.7632 36.9587 82.3307 36.9589 82.39 36.8996C82.4528 36.8367 82.4471 35.7581 82.3837 35.7006C82.3488 35.6691 82.2514 35.6543 81.9479 35.6347C81.7328 35.6208 81.4243 35.5935 81.2623 35.5741C81.1002 35.5546 80.8481 35.5317 80.7021 35.5231C80.4483 35.5082 80.4356 35.5048 80.4134 35.4463C80.37 35.332 80.3958 27.6242 80.4397 27.5958C80.4622 27.5813 80.9148 27.5728 81.605 27.574C82.6761 27.576 82.7344 27.5738 82.7512 27.5312C82.7799 27.4581 82.7761 26.0288 82.747 26.0109C82.7332 26.0023 82.215 25.9965 81.5957 25.998C80.2013 26.0015 80.3858 26.1843 80.3968 24.8098C80.4065 23.5886 80.3971 23.6681 80.5816 23.2458C80.6278 23.14 80.8423 22.9016 80.8912 22.9016C80.9041 22.9016 80.9321 22.8869 80.9534 22.8688C81.3087 22.5683 82.7637 22.7756 83.4584 23.2257C83.5589 23.2908 83.6501 23.3441 83.6609 23.3441C83.6718 23.3441 83.6826 22.7468 83.6848 22.0167C83.6871 21.2866 83.6898 20.6704 83.691 20.6474C83.6986 20.4908 82.4058 20.3311 81.8515 20.4201ZM136.543 20.7758C136.374 20.7925 136.175 20.818 136.101 20.8324C136.027 20.8468 135.873 20.8655 135.758 20.874C135.643 20.8824 135.455 20.9046 135.34 20.9233C135.226 20.942 135 20.9692 134.84 20.9837C134.679 20.9982 134.502 21.02 134.447 21.032C134.391 21.0441 134.247 21.0611 134.125 21.0699C134.003 21.0787 133.81 21.102 133.695 21.1216C133.581 21.1412 133.376 21.1653 133.241 21.1752C132.873 21.2022 132.832 22.383 133.198 22.4199C133.289 22.4291 133.408 22.4485 133.462 22.4629C133.516 22.4774 133.649 22.5035 133.757 22.5209C134.02 22.5633 134.236 22.6078 134.303 22.6336C134.369 22.659 134.394 35.4277 134.327 35.4828C134.311 35.4969 134.192 35.5202 134.064 35.5347C133.935 35.5491 133.796 35.5708 133.755 35.5829C133.713 35.595 133.586 35.6125 133.472 35.6218C133.074 35.6544 133.104 35.5971 133.112 36.3072C133.122 37.2759 138.786 37.2894 138.797 36.3209C138.804 35.6086 138.828 35.6618 138.489 35.6321C138.357 35.6206 138.205 35.6004 138.15 35.5871C138.095 35.5739 137.946 35.5513 137.82 35.537C137.694 35.5226 137.576 35.4989 137.558 35.4842C137.532 35.4623 137.525 34.167 137.52 28.3042C137.513 20.2403 137.551 21.151 137.21 20.9153C136.977 20.7538 136.949 20.7386 136.9 20.742C136.872 20.7438 136.712 20.759 136.543 20.7758ZM51.2031 24.8986C51.1492 26.8971 51.5895 28.3855 52.437 29.0696C53.0056 29.5286 51.6624 29.381 50.6691 28.8753C50.0106 28.54 48.9627 27.7902 48.9627 27.6543C48.9627 27.067 50.0175 25.4204 50.883 24.6567C51.2395 24.3421 51.2185 24.3263 51.2031 24.8986ZM88.8711 24.5224C88.6942 24.5328 88.5381 24.5483 88.5244 24.5568C88.5107 24.5653 88.3958 24.589 88.2692 24.6094C88.1425 24.6298 87.945 24.6737 87.8302 24.7068C87.7154 24.7399 87.5622 24.7839 87.4897 24.8047C87.4173 24.8254 87.3455 24.8524 87.3302 24.8647C87.3149 24.8771 87.2636 24.8954 87.2164 24.9055C87.1691 24.9157 87.0919 24.9446 87.0449 24.9698C86.9978 24.9951 86.9412 25.0157 86.919 25.0157C86.8968 25.0157 86.8649 25.0323 86.8481 25.0526C86.8313 25.0729 86.8052 25.0895 86.7902 25.0895C86.7259 25.0895 86.1506 25.3886 85.8308 25.5884C85.2633 25.9428 84.4664 26.6199 84.4664 26.7478C84.4664 26.8075 85.1801 27.8547 85.2261 27.8624C85.2524 27.8669 85.3787 27.7823 85.5381 27.6535C86.1145 27.1876 86.3638 27.0457 87.0199 26.8103C87.0672 26.7934 87.1777 26.7656 87.2655 26.7485C87.3533 26.7315 87.4803 26.704 87.5478 26.6875C87.7158 26.6464 88.5541 26.6447 88.6527 26.6852C88.6932 26.7018 88.7782 26.7253 88.8416 26.7374C89.3456 26.8332 90.0555 27.4412 90.1527 27.8604C90.1614 27.898 90.1833 27.9524 90.2012 27.9812C90.3139 28.1624 90.3058 29.081 90.1873 29.5512C90.0933 29.9246 89.9593 30.3013 89.8376 30.5345C89.8164 30.575 89.7639 30.6786 89.721 30.7647C89.5226 31.1622 89.0855 31.7782 88.699 32.2049C88.1203 32.8438 87.2116 33.695 86.5984 34.1727C86.4925 34.2552 86.0101 34.6254 85.9151 34.6971C85.8813 34.7226 85.7834 34.7916 85.6974 34.8506C85.6114 34.9095 85.5357 34.9719 85.529 34.9893C85.5224 35.0066 85.485 35.0208 85.4459 35.0208C85.3996 35.0208 85.3749 35.0334 85.3749 35.0572C85.3749 35.0771 85.3335 35.116 85.2828 35.1434C85.1626 35.2087 85.12 35.2359 84.9655 35.3465C84.8948 35.3972 84.8304 35.4387 84.8225 35.4387C84.8146 35.4387 84.7783 35.4593 84.7417 35.4845C84.7051 35.5097 84.5909 35.5815 84.4881 35.644C84.2875 35.7659 84.2807 35.8154 84.4269 36.0901C84.4485 36.1307 84.4662 36.1743 84.4663 36.1869C84.4665 36.221 84.6593 36.7124 84.72 36.8337C84.7883 36.9701 94.4186 37.0065 94.4493 36.8706C94.4578 36.8334 94.4791 36.7422 94.4967 36.6678C94.5143 36.5934 94.536 36.4552 94.545 36.3605C94.554 36.2659 94.5761 36.1276 94.5941 36.0532C94.6122 35.9789 94.6342 35.8406 94.6432 35.746C94.6522 35.6513 94.6743 35.513 94.6923 35.4387C94.7104 35.3643 94.7326 35.226 94.7418 35.1314C94.751 35.0368 94.7731 34.8929 94.7908 34.8118C94.8085 34.7307 94.8302 34.5924 94.839 34.5045C94.8478 34.4167 94.8657 34.3042 94.8786 34.2547C94.8916 34.2052 94.9179 34.0503 94.9371 33.9106C94.9563 33.7708 94.9888 33.5795 95.0093 33.4856C95.0514 33.2924 95.04 33.262 94.919 33.2448C94.8756 33.2386 94.7904 33.2212 94.7296 33.2061C94.4922 33.1472 94.268 33.0967 94.1035 33.0651C94.009 33.0469 93.8976 33.0217 93.8559 33.0091C93.7598 32.98 93.7068 33.009 93.6864 33.1018C93.6778 33.1413 93.6548 33.1869 93.6354 33.203C93.616 33.2191 93.6002 33.2427 93.6002 33.2555C93.6002 33.2784 93.4315 33.6338 93.1125 34.2833C92.9495 34.6152 92.9495 34.6152 92.839 34.6322C92.6667 34.6587 92.2905 34.6997 91.9674 34.7272C91.8053 34.741 91.5567 34.7681 91.4149 34.7874C91.2732 34.8068 91.0577 34.8292 90.9362 34.8373C90.8146 34.8454 90.6047 34.8677 90.4697 34.8868C90.3346 34.906 90.0815 34.9324 89.9073 34.9455C89.733 34.9586 89.5789 34.9809 89.5648 34.9951C89.5489 35.011 89.3772 35.0208 89.1143 35.0208C88.8807 35.0208 88.6896 35.0307 88.6896 35.0427C88.6896 35.0841 88.603 35.0989 88.1665 35.1321C87.926 35.1504 87.6902 35.1783 87.6424 35.1941C87.5197 35.2346 87.4865 35.1944 87.563 35.0975C87.6059 35.0433 87.6428 35.0231 87.7013 35.0221C87.7564 35.0212 87.7811 35.009 87.7811 34.9826C87.7811 34.9617 87.8209 34.9279 87.8695 34.9075C87.9181 34.8872 88.0756 34.7974 88.2194 34.7081C88.3632 34.6187 88.503 34.5336 88.53 34.5189C88.5689 34.4978 88.9896 34.2172 89.4362 33.9146C89.9025 33.5985 90.7193 32.9529 91.2057 32.5157C92.0087 31.794 92.4645 31.3098 92.8513 30.7675C92.9671 30.6051 92.9858 30.5756 93.1687 30.2641C93.3848 29.896 93.5735 29.4303 93.6844 28.991C93.806 28.5091 93.822 27.5283 93.7125 27.2656C93.6955 27.2247 93.6737 27.147 93.6641 27.0929C93.5549 26.4769 92.9503 25.6533 92.2989 25.2334C92.0839 25.0949 91.6726 24.8928 91.6055 24.8928C91.5871 24.8928 91.5616 24.8834 91.5488 24.872C91.527 24.8525 91.2115 24.7513 90.8993 24.6635C90.8251 24.6427 90.709 24.6181 90.6415 24.609C90.574 24.5998 90.4525 24.5771 90.3714 24.5583C90.1907 24.5166 89.3227 24.4958 88.8711 24.5224ZM102.671 25.7017C102.509 25.7116 102.363 25.7275 102.347 25.7369C102.332 25.7464 102.239 25.7695 102.14 25.7883C101.663 25.879 101.159 26.1137 100.678 26.4697C100.425 26.6571 100.091 26.9643 100.071 27.0293C100.06 27.0639 99.9165 27.1544 99.8726 27.1544C99.8664 27.1544 99.8612 26.911 99.8612 26.6136C99.8612 26.3161 99.8529 26.0727 99.8428 26.0726C99.8327 26.0726 99.736 25.9998 99.6279 25.9109C99.3768 25.7043 99.3608 25.6985 99.1565 25.7404C99.0647 25.7592 98.8957 25.7816 98.7809 25.7902C98.6661 25.7988 98.4838 25.8209 98.3757 25.8394C98.2677 25.8579 98.0909 25.88 97.9829 25.8884C97.8749 25.8969 97.6981 25.9191 97.59 25.9376C97.482 25.9562 97.3052 25.9783 97.1972 25.9868C97.0892 25.9953 96.9124 26.0174 96.8043 26.0359C96.6963 26.0545 96.5195 26.0765 96.4115 26.0847C95.7896 26.1321 95.8345 26.0674 95.8345 26.9165C95.8345 27.7058 95.8206 27.6633 96.1046 27.7435C96.2059 27.7721 96.344 27.8111 96.4115 27.8301C96.479 27.8492 96.6006 27.8827 96.6816 27.9045C96.8537 27.9509 96.9933 28.0108 97.0188 28.0491C97.0575 28.1073 97.0407 40.2168 97.0019 40.2724C96.9769 40.308 96.9286 40.3279 96.8418 40.3382C96.7734 40.3463 96.621 40.3749 96.5031 40.4016C96.3852 40.4284 96.2335 40.4628 96.166 40.4781C96.0984 40.4934 96.0101 40.5121 95.9695 40.5197C95.929 40.5272 95.8821 40.5444 95.8652 40.5579C95.8222 40.5922 95.8211 41.6593 95.864 41.7023C95.9233 41.7617 101.793 41.743 101.825 41.6833C101.887 41.5669 101.844 40.5671 101.776 40.5482C101.704 40.528 101.448 40.4876 101.089 40.4396C100.947 40.4206 100.787 40.3949 100.733 40.3825C100.679 40.3701 100.549 40.3524 100.444 40.3432C100.131 40.3156 100.15 40.366 100.154 39.5427C100.156 39.1581 100.145 38.4728 100.129 38.0198C100.113 37.5669 100.098 37.1521 100.097 37.098C100.094 36.9839 100.187 36.9515 100.32 37.0202C100.358 37.0399 100.489 37.0684 100.61 37.0836C100.732 37.0988 100.875 37.1218 100.929 37.1347C101.059 37.1658 101.871 37.1658 102.059 37.1348C102.14 37.1214 102.3 37.0992 102.415 37.0854C102.699 37.0512 103.272 36.9096 103.465 36.8257C103.51 36.8064 103.559 36.7906 103.576 36.7905C103.592 36.7904 103.661 36.7631 103.728 36.7298C103.796 36.6965 103.862 36.669 103.876 36.6685C103.93 36.6668 104.562 36.3302 104.69 36.2345C104.733 36.2024 104.775 36.1761 104.784 36.1761C104.899 36.1761 105.95 35.1594 105.95 35.0479C105.95 35.033 105.964 35.0208 105.981 35.0208C105.998 35.0208 106.023 34.9999 106.037 34.9745C106.05 34.949 106.111 34.8522 106.173 34.7594C106.235 34.6665 106.309 34.5519 106.337 34.5045C106.404 34.3944 106.712 33.7763 106.712 33.7519C106.712 33.7417 106.732 33.6885 106.757 33.6335C106.858 33.4079 106.992 33.0081 107.02 32.8452C107.03 32.7911 107.047 32.7271 107.06 32.703C107.072 32.6789 107.098 32.5627 107.117 32.4449C107.137 32.3271 107.163 32.1945 107.176 32.1502C107.265 31.8444 107.259 30.0822 107.167 29.6741C107.149 29.593 107.126 29.4547 107.117 29.3668C107.108 29.2789 107.085 29.1517 107.066 29.0841C107.047 29.0165 107.016 28.9004 106.996 28.826C106.927 28.5541 106.882 28.4119 106.847 28.3432C106.826 28.3045 106.81 28.2572 106.81 28.238C106.81 28.1824 106.517 27.6033 106.403 27.4333C105.985 26.8086 105.275 26.215 104.674 25.9875C104.34 25.8612 104.169 25.8046 104.079 25.7902C104.021 25.7811 103.919 25.7575 103.851 25.7377C103.703 25.6944 103.095 25.6759 102.671 25.7017ZM126.538 25.7168C125.671 25.7896 124.998 25.9314 124.549 26.136C124.509 26.1545 124.398 26.2024 124.304 26.2426C124.209 26.2827 124.082 26.3438 124.021 26.3782C123.961 26.4127 123.883 26.4547 123.85 26.4717C123.468 26.6627 122.891 27.1693 122.525 27.6338C122.429 27.7554 122.341 27.8672 122.329 27.8822C122.264 27.9634 121.984 28.4548 121.971 28.5116C121.962 28.5482 121.939 28.591 121.92 28.6068C121.901 28.6225 121.885 28.6466 121.885 28.6604C121.885 28.6742 121.864 28.7309 121.839 28.7864C121.813 28.842 121.763 28.9704 121.726 29.0718C121.689 29.1732 121.644 29.2925 121.625 29.3369C121.606 29.3813 121.591 29.4394 121.591 29.4659C121.591 29.4924 121.569 29.5778 121.543 29.6556C121.517 29.7334 121.488 29.8468 121.479 29.9076C121.47 29.9685 121.448 30.0791 121.429 30.1535C121.264 30.8308 121.311 32.5245 121.518 33.3123C121.533 33.3664 121.559 33.4715 121.578 33.5458C121.679 33.9467 122.009 34.7214 122.146 34.8752C122.164 34.8966 122.18 34.9262 122.18 34.9411C122.18 34.9559 122.194 34.9827 122.211 35.0006C122.228 35.0184 122.279 35.0884 122.323 35.156C122.525 35.4654 122.97 35.9146 123.286 36.127C123.316 36.1473 123.37 36.1865 123.405 36.2143C123.618 36.3822 124.193 36.6974 124.457 36.791C125.093 37.0168 125.403 37.0832 126.041 37.1309C126.488 37.1643 127.687 37.0903 127.876 37.0176C127.91 37.0047 127.993 36.9864 128.06 36.9771C128.128 36.9677 128.247 36.9385 128.324 36.9122C128.402 36.886 128.482 36.8645 128.502 36.8645C128.521 36.8645 128.574 36.849 128.618 36.8301C128.662 36.8112 128.782 36.7654 128.883 36.7283C129.156 36.6284 129.657 36.378 129.853 36.2436C130.203 36.003 130.275 35.9465 130.503 35.7324C130.726 35.5239 131.048 35.15 131.082 35.062C131.091 35.0393 131.113 35.0208 131.132 35.0208C131.151 35.0208 131.166 35.0004 131.166 34.9754C131.166 34.9505 131.188 34.91 131.215 34.8856C131.242 34.8611 131.265 34.8322 131.265 34.8214C131.265 34.8106 131.291 34.7631 131.323 34.716C131.464 34.5078 131.818 33.691 131.867 33.4598C131.876 33.4192 131.898 33.3418 131.915 33.2877C131.966 33.133 132.045 32.7656 132.074 32.5502C132.089 32.4421 132.111 32.2983 132.123 32.2307C132.23 31.6407 132.091 29.8432 131.894 29.2615C131.872 29.1968 131.853 29.1249 131.853 29.1017C131.853 29.0785 131.831 29.0153 131.805 28.9612C131.779 28.9071 131.757 28.8424 131.756 28.8175C131.756 28.7925 131.74 28.7428 131.72 28.7069C131.701 28.671 131.656 28.5753 131.62 28.4941C131.479 28.1759 131.436 28.0964 131.255 27.8184C130.984 27.4008 130.569 26.9485 130.278 26.7519C130.228 26.7183 130.133 26.6486 130.066 26.5969C129.999 26.5452 129.908 26.4808 129.862 26.4538C129.634 26.3188 129.454 26.2177 129.399 26.1944C129.365 26.1802 129.287 26.1459 129.227 26.1183C128.958 25.9962 128.713 25.9007 128.668 25.9007C128.651 25.9007 128.574 25.8798 128.496 25.8543C128.005 25.6928 127.362 25.6476 126.538 25.7168ZM114.077 25.7209C113.476 25.766 112.815 25.8923 112.432 26.0355C112.119 26.1528 111.93 26.2265 111.895 26.2448C111.873 26.2565 111.784 26.3013 111.696 26.3444C111.454 26.4632 111.405 26.4916 111.159 26.6581C110.882 26.8449 110.92 26.815 110.652 27.0522C110.325 27.3415 110.203 27.4765 109.904 27.8819C109.812 28.0063 109.815 28.0019 109.675 28.2527C109.624 28.3449 109.571 28.437 109.558 28.4573C109.545 28.4775 109.523 28.5218 109.509 28.5556C109.495 28.5894 109.461 28.6668 109.433 28.7277C109.35 28.9116 109.322 28.9797 109.27 29.121C109.183 29.3609 109.14 29.4996 109.116 29.6126C109.103 29.6735 109.077 29.773 109.058 29.8339C109.039 29.8947 109.016 29.9943 109.007 30.0551C108.999 30.116 108.976 30.2432 108.956 30.3378C108.87 30.7558 108.871 32.2654 108.958 32.7223C108.979 32.8305 109.005 32.9853 109.017 33.0665C109.058 33.3531 109.22 33.9127 109.351 34.2218C109.439 34.4309 109.723 34.9787 109.776 35.0433C109.793 35.0647 109.886 35.1866 109.983 35.3142C110.241 35.6563 111.024 36.3728 111.14 36.3728C111.147 36.3728 111.194 36.4002 111.243 36.4338C111.293 36.4674 111.39 36.5233 111.459 36.5583C111.529 36.5932 111.602 36.6314 111.622 36.6432C111.716 36.6981 111.905 36.7759 112.273 36.912C112.433 36.9715 112.667 37.0306 112.911 37.0733C113.019 37.0922 113.174 37.1193 113.255 37.1334C113.441 37.166 114.626 37.1665 114.839 37.1342C114.926 37.1209 115.087 37.0984 115.195 37.0842C115.477 37.0472 115.99 36.9212 116.238 36.8281C116.583 36.6983 116.741 36.6369 116.775 36.6186C116.797 36.607 116.887 36.5622 116.975 36.5191C117.213 36.4022 117.275 36.3667 117.413 36.267C117.483 36.2171 117.546 36.1761 117.554 36.1761C117.573 36.1761 117.764 36.0192 118.003 35.8079C118.182 35.6491 118.637 35.1409 118.664 35.0699C118.671 35.0497 118.684 35.0275 118.692 35.0208C118.768 34.9537 119.184 34.1975 119.185 34.1241C119.185 34.1103 119.202 34.0657 119.224 34.0252C119.275 33.9286 119.351 33.7148 119.394 33.5461C119.413 33.4719 119.445 33.3988 119.466 33.3836C119.493 33.3639 119.504 33.3122 119.504 33.2033C119.504 33.1064 119.516 33.0383 119.537 33.0168C119.556 32.9982 119.579 32.9077 119.588 32.8157C119.598 32.7238 119.624 32.5822 119.646 32.5011C119.705 32.2877 119.704 30.5 119.645 30.2395C119.623 30.1448 119.598 29.9865 119.588 29.8876C119.579 29.7887 119.556 29.6927 119.537 29.6743C119.516 29.6528 119.504 29.5829 119.504 29.4792C119.504 29.3543 119.493 29.3073 119.458 29.2718C119.433 29.2465 119.404 29.1719 119.395 29.1058C119.385 29.0398 119.363 28.9637 119.346 28.9366C119.329 28.9096 119.307 28.8543 119.298 28.8137C119.28 28.7378 119.266 28.7067 119.073 28.3098C118.662 27.4659 118.061 26.8391 117.204 26.3603C117.111 26.3088 117.02 26.2562 116.999 26.2434C116.979 26.2306 116.935 26.2091 116.901 26.1956C116.867 26.1821 116.822 26.1608 116.8 26.1482C116.778 26.1356 116.667 26.0902 116.554 26.0474C116.441 26.0045 116.31 25.9543 116.263 25.9358C116.215 25.9173 116.133 25.8949 116.079 25.8859C116.024 25.877 115.963 25.8608 115.942 25.8499C115.741 25.7465 114.699 25.6744 114.077 25.7209ZM114.605 27.0552C114.942 27.1292 115.296 27.3454 115.506 27.6053C115.639 27.77 115.754 27.991 115.811 28.1912C115.831 28.2632 115.864 28.3774 115.883 28.445C115.902 28.5126 115.935 28.6398 115.957 28.7277C115.978 28.8156 116.01 28.9428 116.029 29.0104C116.048 29.078 116.07 29.1886 116.079 29.2562C116.087 29.3238 116.109 29.451 116.128 29.5389C116.146 29.6268 116.168 29.7816 116.177 29.883C116.186 29.9844 116.208 30.2223 116.227 30.4116C116.274 30.8851 116.273 32.2225 116.225 32.6609C116.205 32.8434 116.182 33.0591 116.174 33.1402C116.167 33.2213 116.149 33.3375 116.135 33.3983C116.121 33.4592 116.095 33.5864 116.079 33.681C116.03 33.9558 115.927 34.3425 115.843 34.5665C115.817 34.6343 115.796 34.7064 115.796 34.7266C115.796 34.7469 115.774 34.8047 115.747 34.8551C115.72 34.9056 115.698 34.9635 115.698 34.9838C115.698 35.0041 115.681 35.0208 115.661 35.0208C115.641 35.0208 115.624 35.0401 115.624 35.0638C115.623 35.2272 115.005 35.7337 114.806 35.7337C114.787 35.7337 114.73 35.7509 114.679 35.772C114.224 35.9624 113.365 35.6304 113.029 35.1345C112.991 35.0787 112.955 35.0275 112.948 35.0208C112.932 35.0047 112.816 34.7377 112.777 34.6275C112.701 34.4136 112.638 34.1822 112.545 33.7794C112.449 33.3651 112.432 33.2754 112.408 33.0665C112.395 32.9448 112.37 32.7789 112.353 32.6977C112.305 32.4716 112.315 30.4321 112.366 30.0551C112.387 29.8996 112.411 29.6895 112.42 29.5881C112.428 29.4867 112.446 29.3641 112.458 29.3157C112.471 29.2673 112.498 29.1401 112.518 29.033C112.561 28.8012 112.622 28.5623 112.655 28.4941C112.668 28.4671 112.689 28.4118 112.701 28.3712C112.739 28.2484 112.842 28.0127 112.871 27.9833C112.887 27.9682 112.899 27.945 112.899 27.9318C112.899 27.8149 113.332 27.3416 113.552 27.2178C113.854 27.0486 114.277 26.9831 114.605 27.0552ZM127.238 27.1095C127.745 27.2954 128.166 27.7448 128.258 28.1991C128.266 28.2397 128.287 28.3116 128.306 28.3589C128.348 28.4689 128.41 28.7136 128.455 28.9489C128.475 29.0503 128.501 29.1665 128.514 29.207C128.527 29.2476 128.549 29.3748 128.563 29.4897C128.578 29.6046 128.6 29.7429 128.612 29.797C128.688 30.1188 128.708 32.5298 128.639 33.0419C128.606 33.2873 128.52 33.7636 128.503 33.7898C128.496 33.802 128.474 33.8876 128.454 33.9801C128.392 34.2782 128.276 34.6577 128.192 34.838C128.167 34.893 128.146 34.9566 128.146 34.9794C128.146 35.0021 128.13 35.0208 128.11 35.0208C128.089 35.0208 128.073 35.0387 128.073 35.0606C128.073 35.2281 127.536 35.6656 127.243 35.7372C127.179 35.7527 127.107 35.7756 127.083 35.7881C126.927 35.8676 126.372 35.793 126.084 35.6539C125.849 35.5405 125.421 35.1556 125.421 35.0576C125.421 35.0373 125.412 35.0208 125.402 35.0208C125.391 35.0208 125.37 34.9904 125.354 34.9532C125.339 34.916 125.298 34.8201 125.264 34.74C125.23 34.6599 125.195 34.5603 125.187 34.5188C125.179 34.4771 125.158 34.4044 125.139 34.357C125.075 34.1897 124.943 33.6221 124.892 33.2877C124.872 33.1525 124.845 33.0032 124.832 32.9558C124.755 32.6639 124.755 30.1935 124.831 29.8339C124.844 29.773 124.867 29.6126 124.881 29.4774C124.896 29.3422 124.923 29.1763 124.941 29.1087C124.972 28.9924 125.025 28.7866 125.078 28.5679C125.205 28.0535 125.648 27.4011 126.001 27.2109C126.355 27.02 126.877 26.9772 127.238 27.1095ZM55.371 27.5212C57.805 28.0865 60.6581 30.3441 62.0991 32.8452C62.9177 34.266 63.4931 36.3602 63.1521 36.678C62.2529 37.5159 61.0312 38.1092 59.7567 38.3268C59.4006 38.3875 59.3464 38.3808 59.1442 38.2502C57.948 37.4777 57.1882 36.325 56.8247 34.7311C56.7363 34.3435 56.7186 34.3703 56.7236 34.8845C56.7358 36.1386 57.069 37.2176 57.7627 38.2494C57.9367 38.5081 57.732 38.524 56.1748 38.3728C55.7387 38.3304 55.7387 38.3304 55.6224 38.4142C54.407 39.2897 53.0643 39.6407 51.6901 39.4421C51.3971 39.3998 51.3929 39.3796 51.6435 39.2178C52.1668 38.8798 52.4438 38.3357 52.419 37.6947C52.4071 37.3871 52.4011 37.3767 52.1569 37.2424C49.0145 35.5135 47.7314 32.2323 48.7216 28.4576C48.8489 27.9725 48.8195 27.9861 49.116 28.2758C50.7236 29.8464 52.9808 30.6436 54.2832 30.1007C55.2553 29.6956 55.6071 28.683 55.113 27.7122C54.956 27.4037 54.9343 27.4198 55.371 27.5212ZM102.193 27.5141C102.523 27.5886 102.881 27.8133 103.103 28.0849C103.278 28.3001 103.356 28.4561 103.558 28.9981C103.661 29.2754 103.783 29.7735 103.814 30.0428C103.826 30.151 103.849 30.328 103.865 30.4362C103.914 30.7708 103.838 32.7137 103.764 33.0338C103.749 33.0969 103.722 33.2462 103.704 33.3656C103.67 33.5855 103.64 33.7141 103.577 33.9146C103.557 33.9754 103.53 34.0694 103.517 34.1235C103.504 34.1776 103.47 34.2716 103.442 34.3325C103.312 34.6119 103.266 34.703 103.249 34.7137C103.239 34.7201 103.223 34.763 103.215 34.8091C103.206 34.8552 103.183 34.9064 103.163 34.923C103.143 34.9395 103.127 34.9683 103.127 34.9869C103.127 35.0055 103.116 35.0208 103.104 35.0208C103.091 35.0208 103.074 35.0434 103.065 35.0711C103.013 35.2345 102.517 35.6227 102.194 35.7524C101.651 35.9704 100.634 35.9233 100.424 35.6704C100.408 35.6511 100.381 35.6353 100.364 35.6353C100.347 35.6353 100.293 35.5911 100.245 35.5369C100.146 35.4282 100.096 28.3743 100.192 28.1884C100.437 27.7139 101.497 27.3567 102.193 27.5141ZM60.4167 34.656C59.9998 34.8125 59.8842 35.2784 60.1866 35.5837C60.7071 36.1093 61.55 35.3905 61.0636 34.8359C60.9162 34.6677 60.6113 34.583 60.4167 34.656Z" fill="white"/>
</svg>
