<svg width="180" height="60" viewBox="0 0 180 60" fill="none" xmlns="http://www.w3.org/2000/svg">
<g clip-path="url(#clip0_2953_7020)">
<path fill-rule="evenodd" clip-rule="evenodd" d="M127.797 24.6459H131.071V21.3711H127.797V24.6459ZM110.395 30.0995C111.021 28.4402 112.623 27.2587 114.501 27.2587C116.38 27.2587 117.982 28.4402 118.607 30.0995H110.395ZM114.501 24.214C110.397 24.214 107.069 27.5422 107.069 31.6479C107.069 35.7535 110.397 39.0812 114.501 39.0812C117.318 39.0812 119.767 37.515 121.029 35.2064L118.282 33.8738C117.519 35.1677 116.112 36.0364 114.501 36.0364C112.466 36.0364 110.756 34.6507 110.259 32.7712H118.743C118.743 32.7726 118.742 32.7745 118.742 32.7762H121.849C121.906 32.4081 121.935 32.0313 121.935 31.6479C121.935 27.5422 118.607 24.214 114.501 24.214ZM122.798 38.6849H126.072V35.4101H122.798V38.6849ZM127.797 38.6849H131.071V26.0855H127.797V38.6849ZM140.209 36.0364C137.786 36.0364 135.822 34.0715 135.822 31.6479C135.822 29.2237 137.786 27.2587 140.209 27.2587C142.633 27.2587 144.597 29.2237 144.597 31.6479C144.597 34.0715 142.633 36.0364 140.209 36.0364ZM140.208 24.214C136.104 24.214 132.776 27.5422 132.776 31.6479C132.776 35.7535 136.104 39.0812 140.208 39.0812C144.313 39.0812 147.641 35.7535 147.641 31.6479C147.641 27.5422 144.313 24.214 140.208 24.214ZM71.7561 28.9076V32.2936H76.3339C76.0949 33.2612 75.6223 34.1282 74.9447 34.8208C73.9226 35.8655 72.5055 36.4412 70.9539 36.4412C67.7343 36.4412 65.1147 33.8212 65.1147 30.6006C65.1147 27.3801 67.7343 24.7598 70.9539 24.7598C72.6785 24.7598 74.2638 25.4981 75.3628 26.7716L77.9838 24.6294C76.246 22.5925 73.6677 21.3736 70.9539 21.3736C65.8676 21.3736 61.7295 25.5129 61.7295 30.6006C61.7295 35.6883 65.8676 39.8274 70.9539 39.8274C73.4235 39.8274 75.7001 38.9374 77.3645 37.2362C78.7611 35.8083 79.6868 33.8165 79.8648 31.8212C79.9516 30.8479 79.9595 29.8812 79.9083 28.9076H71.7561ZM88.4323 36.0372C86.009 36.0372 84.0442 34.0718 84.0442 31.6479C84.0442 29.2234 86.009 27.2585 88.4323 27.2585C90.8559 27.2585 92.8207 29.2234 92.8207 31.6479C92.8207 34.0718 90.8559 36.0372 88.4323 36.0372ZM92.8212 25.6627C91.5911 24.7606 90.0743 24.2266 88.4323 24.2266C84.3284 24.2266 81.0016 27.5545 81.0016 31.6594C81.0016 35.7648 84.3284 39.0921 88.4323 39.0921C90.0743 39.0921 91.5911 38.5584 92.8212 37.6563V38.6849H95.8634V24.6341H92.8212V25.6627ZM102.394 21.3714H99.3515V24.6459H97.528V27.5178H99.3515V35.0336C99.3515 35.8097 99.449 36.4625 99.6423 36.9749C99.8328 37.4818 100.124 37.8787 100.47 38.1887C100.821 38.5033 101.233 38.7484 101.721 38.8875C102.218 39.0272 102.765 39.0812 103.343 39.0812C103.942 39.0812 104.476 39.019 104.932 38.896C105.355 38.7824 105.76 38.6216 106.137 38.4173V36.1032C105.537 36.3629 104.976 36.4568 104.336 36.4866C103.66 36.5184 103.261 36.3253 102.928 36.0082C102.58 35.676 102.394 35.2431 102.394 34.5168V27.5178H106.137V24.6459H102.394V21.3714Z" fill="white"/>
<path fill-rule="evenodd" clip-rule="evenodd" d="M45.555 37.2599C41.5464 37.2599 38.2968 34.0098 38.2968 30C38.2968 25.9905 41.5464 22.7398 45.555 22.7398V16.7998C38.2664 16.7998 32.3579 22.7096 32.3579 30C32.3579 37.2901 38.2664 43.1999 45.555 43.1999C52.8434 43.1999 58.7522 37.2901 58.7522 30H52.8133C52.8133 34.0098 49.5637 37.2599 45.555 37.2599Z" fill="white"/>
<path fill-rule="evenodd" clip-rule="evenodd" d="M45.5547 29.9997H52.813V22.7397H45.5547V29.9997Z" fill="white"/>
</g>
<defs>
<clipPath id="clip0_2953_7020">
<rect width="115.284" height="26.4" fill="white" transform="translate(32.3582 16.7998)"/>
</clipPath>
</defs>
</svg>
