<svg width="180" height="60" viewBox="0 0 180 60" fill="none" xmlns="http://www.w3.org/2000/svg">
<g clip-path="url(#clip0_2953_7047)">
<path fill-rule="evenodd" clip-rule="evenodd" d="M107.692 43.1278H98.9995V34.3618H107.693V34.3618H116.4H116.4H125.093V37.1261C124.993 37.1633 124.897 37.2046 124.801 37.2496L125.093 38.1384V38.8613C124.675 39.0803 124.422 39.4618 124.422 40.0208V40.0354C124.422 40.579 124.689 40.9655 125.093 41.1764V43.1278H116.4H116.4H107.692V43.1278ZM125.093 41.1767V43.1278H133.801V34.3618H125.093V37.126C125.476 36.9823 125.899 36.8995 126.478 36.8995C127.149 36.8995 127.631 37.0745 127.937 37.3808C128.258 37.7017 128.404 38.183 128.404 38.7665V41.2752H127.222V40.8085C126.916 41.1439 126.507 41.3627 125.909 41.3627C125.609 41.3627 125.328 41.2995 125.093 41.1767ZM125.093 38.1398V38.8611C125.384 38.7088 125.753 38.6352 126.172 38.6352C126.61 38.6352 126.93 38.7081 127.237 38.8102V38.7373C127.237 38.2268 126.916 37.9497 126.303 37.9497C125.837 37.9497 125.501 38.0372 125.107 38.183L125.093 38.1398ZM101.741 38.4456V38.4602C101.741 40.0938 102.966 41.3773 104.644 41.3773C105.738 41.3773 106.379 40.9981 106.963 40.3709L106.175 39.5687C105.738 39.9625 105.329 40.225 104.687 40.225C103.71 40.225 103.039 39.4228 103.039 38.4456V38.431C103.039 37.4538 103.739 36.6661 104.687 36.6661C105.256 36.6661 105.694 36.9141 106.131 37.3079L106.919 36.389C106.394 35.8639 105.752 35.5139 104.687 35.5139C102.952 35.5139 101.741 36.8412 101.741 38.4456ZM109.209 41.3627C108.392 41.3627 107.721 40.896 107.721 40.0354V40.0208C107.721 39.0728 108.45 38.6352 109.471 38.6352C109.909 38.6352 110.23 38.7081 110.536 38.8102V38.7373C110.536 38.2268 110.215 37.9497 109.603 37.9497C109.136 37.9497 108.801 38.0372 108.407 38.183L108.1 37.2496C108.567 37.0308 109.048 36.8995 109.778 36.8995C110.449 36.8995 110.93 37.0745 111.236 37.3808C111.557 37.7017 111.703 38.183 111.703 38.7665V41.2752H110.522V40.8085C110.215 41.1439 109.807 41.3627 109.209 41.3627ZM109.588 40.5022C110.157 40.5022 110.551 40.1813 110.551 39.7437V39.5249C110.332 39.4228 110.069 39.3645 109.763 39.3645C109.238 39.3645 108.917 39.5687 108.917 39.9625V39.9771C108.917 40.3125 109.194 40.5022 109.588 40.5022ZM114.168 42.5733H112.943V36.9141H114.168V37.5413C114.474 37.1475 114.883 36.8412 115.525 36.8412C116.531 36.8412 117.494 37.6434 117.494 39.0873V39.1019C117.494 40.5605 116.546 41.3481 115.525 41.3481C114.868 41.3481 114.46 41.0564 114.168 40.7064V42.5733ZM115.189 40.3125C115.772 40.3125 116.254 39.8458 116.254 39.1165V39.1019C116.254 38.3872 115.758 37.9059 115.189 37.9059C114.62 37.9059 114.139 38.3872 114.139 39.1019V39.1165C114.139 39.8312 114.62 40.3125 115.189 40.3125ZM119.886 36.4619H118.587V35.368H119.886V36.4619ZM119.842 41.2752H118.617V36.9433H119.842V41.2752ZM122.613 41.3481C121.869 41.3481 121.359 41.0564 121.359 40.05V37.9934H120.848V36.9433H121.359V35.8348H122.584V36.9433H123.605V37.9934H122.584V39.8458C122.584 40.1375 122.701 40.2688 122.978 40.2688C123.211 40.2688 123.415 40.2104 123.59 40.1083V41.1002C123.328 41.246 123.022 41.3481 122.613 41.3481ZM126.274 40.5022C126.843 40.5022 127.237 40.1813 127.237 39.7437V39.5249C127.018 39.4228 126.755 39.3645 126.449 39.3645C125.924 39.3645 125.603 39.5687 125.603 39.9625V39.9771C125.603 40.3125 125.88 40.5022 126.274 40.5022ZM130.912 41.2752H129.687V35.368H130.912V41.2752Z" fill="white"/>
<path d="M46.2864 17.0187H49.3202V22.4737H54.9211V17.0187H57.9549V30.8167H54.9211V25.2741H49.3202V30.8167H46.2864V17.0187ZM86.8199 30.8167H89.8537V25.2741H95.4545V30.8167H98.4884V17.0187H95.4545V22.4737H89.8537V17.0187H86.8199V30.8167ZM59.2968 30.8167H62.3889L63.6433 27.7245H69.4775L70.7319 30.8167H73.9116L67.9898 16.9166H65.1894L59.2968 30.8167ZM64.7372 25.0408L66.575 20.563L68.4128 25.0408H64.7372ZM74.1304 28.8038C75.7931 30.277 77.8934 31.0063 79.9792 31.0063C82.9547 31.0063 85.0404 29.4748 85.0404 26.7327V26.6889C85.0404 24.2823 83.4652 23.2759 80.6647 22.5466C78.2727 21.934 77.6892 21.6423 77.6892 20.738V20.6942C77.6892 20.0233 78.3018 19.4982 79.4687 19.4982C80.6355 19.4982 81.8316 20.0087 83.0568 20.8547L84.632 18.5647C83.2318 17.4416 81.5107 16.8145 79.4979 16.8145C76.6828 16.8145 74.67 18.4772 74.67 20.9714V21.0151C74.67 23.7572 76.4641 24.5303 79.2499 25.2304C81.5544 25.8284 82.0358 26.2222 82.0358 26.9806V27.0244C82.0358 27.8266 81.2919 28.3225 80.0375 28.3225C78.4623 28.3225 77.1642 27.6662 75.9244 26.6452L74.1304 28.8038ZM108.99 30.8167H119.506V28.1183H112.009V25.2158H118.514V22.5174H112.009V19.717H119.404V17.0187H108.99V30.8167V30.8167ZM125.297 30.8167H128.331V25.3179L133.64 17.0187H130.183L126.828 22.5612L123.532 17.0187H119.988L125.297 25.3762V30.8167V30.8167Z" fill="white"/>
<path fill-rule="evenodd" clip-rule="evenodd" d="M103.565 26.5724L103.565 26.5724L103.565 26.5724H103.565L101.45 24.4575L99.3204 26.5724H99.3203L99.3204 26.5724L99.3203 26.5724H99.3204L101.45 28.7019L103.565 26.5724H103.565L101.45 28.7019H105.679L105.679 28.7019H101.45L103.565 30.8167L103.565 30.8167H103.565L103.565 30.8168L103.565 30.8167H107.794L105.68 28.702L105.68 28.7019H105.679L105.679 28.7019H105.68L103.565 26.5724L103.565 26.5724Z" fill="white"/>
<path d="M103.564 21.3071L101.42 23.4512L99.2761 21.3071H103.564Z" fill="white"/>
<path d="M99.2764 21.3067L101.42 19.1626L103.565 21.3067H99.2764Z" fill="white"/>
<path d="M105.708 19.1626L103.564 21.3067L101.42 19.1626H105.708Z" fill="white"/>
<path d="M101.42 19.1631L103.564 17.019L105.708 19.1631H101.42Z" fill="white"/>
<path d="M107.852 17.019L105.708 19.1631L103.564 17.019H107.852Z" fill="white"/>
</g>
<defs>
<clipPath id="clip0_2953_7047">
<rect width="87.6597" height="26.4" fill="white" transform="translate(46.1702 16.7998)"/>
</clipPath>
</defs>
</svg>
