<svg width="180" height="60" viewBox="0 0 180 60" fill="none" xmlns="http://www.w3.org/2000/svg">
<g clip-path="url(#clip0_2953_6987)">
<path fill-rule="evenodd" clip-rule="evenodd" d="M47.9047 37.7979L40.0961 29.9881L47.9083 22.1723L52.8371 27.1011C53.7184 27.8947 55.0668 27.8594 55.9054 27.0208C56.744 26.1822 56.7793 24.8338 55.9857 23.9525L49.4765 17.4481C48.6031 16.5883 47.2013 16.5883 46.3279 17.4481L36.945 26.8322V21.2531C36.945 20.0218 35.9469 19.0237 34.7156 19.0237C33.4843 19.0237 32.4861 20.0218 32.4861 21.2531V38.7159C32.4861 39.9472 33.4843 40.9453 34.7156 40.9453C35.9469 40.9453 36.945 39.9472 36.945 38.7159V33.1368L46.3291 42.5233C47.2028 43.3825 48.6041 43.3825 49.4778 42.5233L55.9821 36.0178C56.7757 35.1364 56.7404 33.7881 55.9017 32.9495C55.0631 32.1109 53.7148 32.0756 52.8335 32.8691L47.9047 37.7979ZM45.8454 29.1332C46.1913 28.2992 47.0055 27.7558 47.9083 27.7562V27.755C48.5002 27.7554 49.0678 27.9908 49.4861 28.4096C49.9044 28.8284 50.1393 29.3962 50.139 29.9881C50.139 30.891 49.5951 31.7049 48.7609 32.0503C47.9268 32.3956 46.9667 32.2045 46.3285 31.5659C45.6902 30.9273 45.4996 29.9672 45.8454 29.1332ZM122.373 29.9885C122.373 29.3152 122.373 28.6818 122.351 28.0969C122.337 27.5451 122.282 26.9951 122.188 26.4511C122.1 25.9544 121.945 25.472 121.726 25.0173C121.496 24.5484 121.188 24.1218 120.816 23.7554C120.288 23.2142 119.659 22.7811 118.965 22.4802C118.215 22.1762 117.411 22.0255 116.601 22.037C115.789 22.0265 114.982 22.1771 114.228 22.4802C113.53 22.777 112.898 23.2083 112.367 23.7494C111.995 24.1155 111.688 24.5422 111.46 25.0112C111.243 25.4661 111.09 25.9486 111.005 26.4451C110.914 26.9892 110.861 27.5392 110.848 28.0908C110.833 28.6757 110.826 29.3091 110.83 29.9824C110.831 30.1481 110.831 30.3111 110.832 30.4714V30.4722C110.833 30.9632 110.834 31.4293 110.848 31.8728C110.861 32.4245 110.914 32.9745 111.005 33.5186C111.09 34.0151 111.243 34.4975 111.46 34.9524C111.689 35.4209 111.996 35.8474 112.367 36.2143C112.897 36.7558 113.53 37.1864 114.228 37.481C114.982 37.7861 115.789 37.9376 116.601 37.9266C117.411 37.9386 118.215 37.787 118.965 37.481C119.659 37.1841 120.288 36.7537 120.816 36.2143C121.187 35.8472 121.495 35.4207 121.726 34.9524C121.945 34.4976 122.1 34.0153 122.188 33.5186C122.281 32.9762 122.335 32.4278 122.349 31.8776C122.367 31.2891 122.376 30.6594 122.371 29.9873L122.373 29.9885ZM119.321 29.9885C119.321 30.7345 119.311 31.3557 119.285 31.8498C119.271 32.2556 119.23 32.6602 119.164 33.0608C119.119 33.3277 119.037 33.5872 118.922 33.8322C118.828 34.0297 118.706 34.2121 118.558 34.3735C118.331 34.6338 118.049 34.8405 117.733 34.979C117.376 35.1315 116.993 35.209 116.605 35.2068C116.216 35.2084 115.83 35.131 115.472 34.979C115.147 34.8431 114.858 34.6362 114.624 34.3735C114.476 34.2128 114.353 34.0302 114.261 33.8322C114.148 33.587 114.071 33.3274 114.031 33.0608C113.966 32.6599 113.925 32.2555 113.909 31.8498C113.888 31.3557 113.877 30.7353 113.877 29.9885C113.877 29.2425 113.888 28.62 113.909 28.1259C113.925 27.7202 113.966 27.3158 114.031 26.9149C114.071 26.6484 114.148 26.3887 114.261 26.1435C114.353 25.9457 114.476 25.7631 114.624 25.6022C114.858 25.3399 115.148 25.1331 115.472 24.9967C115.83 24.843 116.216 24.7655 116.605 24.769C116.993 24.765 117.377 24.8426 117.733 24.9967C118.049 25.1356 118.331 25.3423 118.558 25.6022C118.705 25.7639 118.828 25.9462 118.922 26.1435C119.037 26.3885 119.119 26.648 119.164 26.9149C119.23 27.3156 119.271 27.7201 119.285 28.1259C119.312 28.6188 119.321 29.2413 119.321 29.9885ZM146.691 22.441C146.689 22.2937 146.57 22.1747 146.423 22.1733H143.905C143.758 22.174 143.638 22.2934 143.638 22.441V31.7415L137.498 22.2484C137.457 22.1842 137.42 22.1733 137.33 22.1733H134.995C134.848 22.1753 134.729 22.294 134.727 22.441V37.5326C134.729 37.6794 134.848 37.7977 134.995 37.799H137.511C137.658 37.7983 137.777 37.6794 137.778 37.5326V28.2078L143.919 37.7227C143.961 37.7869 143.995 37.7978 144.087 37.7978H146.421C146.568 37.7971 146.687 37.6784 146.688 37.5314L146.691 22.441ZM129.546 22.1733C129.693 22.174 129.813 22.2934 129.813 22.4409V37.5313C129.813 37.6788 129.693 37.7983 129.546 37.7989H127.031C126.883 37.7983 126.764 37.6788 126.763 37.5313V22.4409C126.764 22.2934 126.883 22.174 127.031 22.1733H129.546ZM99.703 29.9882C99.703 29.2373 99.7114 28.6125 99.7332 28.1147C99.748 27.7089 99.7885 27.3045 99.8543 26.9037C100.087 25.5595 101.116 24.7663 102.43 24.7663C103.288 24.7736 104.065 25.0909 104.562 25.8126C104.786 26.1496 104.95 26.5234 105.046 26.9171C105.053 26.9585 105.091 26.9875 105.133 26.9837H108.094C108.136 26.9837 108.152 26.9546 108.145 26.9134C107.822 25.0812 106.844 23.4354 105.117 22.6204C104.269 22.2274 103.342 22.0308 102.407 22.0452C100.74 22.0452 99.3356 22.616 98.194 23.7575C97.5423 24.3927 97.0974 25.2099 96.9176 26.102C96.7433 26.9804 96.6553 28.2754 96.6536 29.987C96.652 31.6985 96.74 32.9931 96.9176 33.8707C97.0959 34.764 97.5395 35.5828 98.1904 36.22C99.3312 37.3608 100.736 37.9312 102.404 37.9312C103.339 37.9453 104.265 37.7492 105.114 37.3572C106.841 36.5422 107.818 34.8964 108.141 33.0641C108.149 33.0218 108.133 32.9939 108.09 32.9939H105.128C105.086 32.9895 105.048 33.0187 105.041 33.0605C104.945 33.4537 104.781 33.8271 104.557 34.1637C104.06 34.8903 103.283 35.204 102.425 35.21C101.111 35.21 100.082 34.418 99.8495 33.0738C99.7837 32.6731 99.7433 32.2686 99.7284 31.8628C99.7114 31.3627 99.703 30.7366 99.703 29.9882ZM68.1624 22.1733C68.31 22.174 68.4294 22.2934 68.4301 22.441V28.7915L73.905 22.2254C73.9294 22.1928 73.9685 22.1746 74.0092 22.177H77.3504C77.5078 22.177 77.5502 22.292 77.4497 22.4131L72.4688 28.3882L77.8977 37.5919C77.968 37.7118 77.9426 37.7991 77.8021 37.7991H74.7455C74.6847 37.8015 74.6272 37.7709 74.5953 37.7191L70.4488 30.6892L68.4301 33.1027V37.5326C68.4288 37.6796 68.3095 37.7983 68.1624 37.7991H65.6472C65.5001 37.7983 65.3809 37.6796 65.3795 37.5326V22.441C65.3802 22.2934 65.4996 22.174 65.6472 22.1733H68.1624ZM86.7553 35.2099C85.3396 35.2099 84.0559 33.8995 84.0559 32.3349V22.441C84.0553 22.2934 83.9358 22.174 83.7883 22.1733H81.273C81.1255 22.174 81.0061 22.2934 81.0054 22.441V32.2962C81.0054 35.7415 83.5824 37.931 86.7553 37.931C89.9281 37.931 92.5051 35.7415 92.5051 32.2962V22.441C92.5038 22.2937 92.3848 22.1747 92.2375 22.1733H89.721C89.574 22.1747 89.4553 22.2939 89.4546 22.441V32.3349C89.4546 33.8983 88.1697 35.2099 86.7553 35.2099Z" fill="white"/>
</g>
<defs>
<clipPath id="clip0_2953_6987">
<rect width="115.029" height="26.4" fill="white" transform="translate(32.4856 16.7998)"/>
</clipPath>
</defs>
</svg>
