<svg width="180" height="60" viewBox="0 0 180 60" fill="none" xmlns="http://www.w3.org/2000/svg">
<path fill-rule="evenodd" clip-rule="evenodd" d="M29.4336 35.6269C30.8955 38.0764 32.1048 39.7267 35.1964 39.9374H35.6977C35.7403 39.9376 35.7833 39.9376 35.8266 39.9374H35.6977C32.251 39.9164 30.9746 38.2071 29.4336 35.6269ZM20.6801 39.9374H11.1702C10.4872 39.9374 9.82692 39.7552 9.23498 39.4137C7.3681 38.3437 6.73063 35.9759 7.80067 34.1318L14.699 22.1793C14.995 21.5646 15.4503 21.0409 16.0195 20.6767C17.8181 19.4928 20.2313 19.9709 21.4152 21.7695L23.5033 25.3936L18.023 34.7237C16.7273 36.9264 18.1765 39.6617 20.6801 39.9374Z" fill="white"/>
<path fill-rule="evenodd" clip-rule="evenodd" d="M32.2067 21.929L39.2189 34.0865C40.7443 36.9324 38.6725 39.9376 35.8949 39.9376H35.1883C31.8627 39.7081 30.7176 37.8101 29.0874 35.0432L28.6548 34.2919C28.245 33.5861 27.3571 32.0835 27.3571 32.0835L23.5323 25.3445L22.1016 27.7803L25.445 22.0429C26.9248 19.3564 30.6586 19.4019 32.2067 21.929Z" fill="white"/>
<path opacity="0.5" d="M29.0875 35.0429L28.655 34.2916C28.2452 33.5858 27.3573 32.0832 27.3573 32.0832L23.5324 25.3442L18.0229 34.7242C16.6569 37.0464 18.3416 39.9605 21.0964 39.9605H35.8265C32.0017 39.9378 30.8178 37.9798 29.0875 35.0429Z" fill="white"/>
<path d="M171.539 38.9813C170.697 39.004 169.877 38.7991 169.171 38.3893C168.557 38.0023 168.192 37.3193 168.238 36.5908V24.8203H169.809C170.378 24.8203 170.856 25.2984 170.856 25.8676V36.2265C170.879 36.568 171.016 36.8867 171.266 37.1372C171.516 37.3876 171.858 37.5242 172.199 37.5242H172.495C172.609 37.5242 172.723 37.6153 172.723 37.7519V39.0268L171.539 38.9813Z" fill="white"/>
<path d="M137.822 38.9813C136.205 38.9813 134.885 38.5487 133.883 37.6836C133.405 37.2965 133.041 36.7957 132.813 36.2265C132.585 35.6801 132.494 34.906 132.494 33.8587C132.494 32.8115 132.608 32.0146 132.813 31.491C133.041 30.9446 133.405 30.4665 133.86 30.0794C134.862 29.2143 136.182 28.7817 137.799 28.7817C139.415 28.7817 140.736 29.2143 141.737 30.0794C142.193 30.4437 142.557 30.9446 142.785 31.491C143.035 32.2651 143.149 33.0619 143.103 33.8815C143.103 34.9288 142.99 35.7256 142.785 36.2493C142.557 36.8184 142.193 37.3193 141.715 37.7063C140.781 38.5487 139.438 38.9813 137.822 38.9813ZM137.822 30.2843C136.046 30.2843 135.158 31.491 135.158 33.9043C135.158 36.3175 136.046 37.547 137.822 37.547C139.597 37.547 140.485 36.3403 140.485 33.927C140.485 31.5138 139.575 30.2843 137.822 30.2843Z" fill="white"/>
<path d="M149 38.9813C147.657 39.004 146.337 38.617 145.198 37.8657C145.016 37.7063 144.811 37.5697 144.606 37.4559C144.538 37.4104 144.492 37.3421 144.492 37.2738V24.8203H146.086C146.655 24.8203 147.133 25.2984 147.133 25.8676V29.5103L147.611 29.2371C148.181 28.9411 148.932 28.8045 149.911 28.8045C151.618 28.8045 152.916 29.3281 153.759 30.3071C154.51 31.195 154.897 32.3789 154.897 33.836C154.897 35.293 154.464 36.4769 153.599 37.3421C152.62 38.4576 151.049 38.9813 149 38.9813ZM149.251 30.2843C148.659 30.2843 147.976 30.512 147.224 30.9673L147.111 31.0129V36.864L147.224 36.955C147.839 37.3421 148.522 37.5242 149.251 37.5242C150.161 37.547 151.027 37.0916 151.482 36.3175C151.937 35.589 152.188 34.7466 152.165 33.8815C152.165 31.491 151.186 30.2843 149.251 30.2843Z" fill="white"/>
<path d="M161.135 38.9587C158.175 38.9587 156.309 37.0236 156.309 33.859C156.309 30.6944 158.13 28.782 161.09 28.782C162.114 28.7592 163.139 29.0552 163.981 29.6471L164.14 29.761V28.9869H166.212C166.326 28.9869 166.417 29.078 166.417 29.1918V38.7766H164.095V37.9115L163.935 38.0481C163.298 38.64 162.273 38.9587 161.135 38.9587ZM161.659 30.5123C159.792 30.5123 158.699 31.9466 158.699 33.859C158.699 35.7714 159.815 37.2512 161.659 37.2512C162.251 37.2512 163.275 37.2057 164.095 36.3861L164.118 36.3633V31.4457L164.095 31.4229C163.548 30.7855 162.706 30.5123 161.659 30.5123Z" fill="white"/>
<path d="M65.3096 38.8674V24.8203H76.9889V25.7082C76.9889 26.414 76.4198 26.9832 75.714 26.9832H68.201V30.7397H75.714V32.9025H68.201V36.6818H75.714C76.4198 36.6818 76.9889 37.251 76.9889 37.9568V38.8447L65.3096 38.8674Z" fill="white"/>
<path d="M93.745 24.7979H90.9902C90.4894 24.7979 90.0113 25.0255 89.6925 25.4126L86.3913 29.6016L83.0674 25.4353C82.7486 25.0483 82.2705 24.8206 81.7697 24.8206H79.0149L84.5928 31.8328L79.0149 38.845H81.7697C82.2705 38.845 82.7486 38.6173 83.0674 38.2303L86.3913 34.0867L89.7381 38.2758C90.0568 38.6628 90.5349 38.8905 91.0358 38.8905H93.7905L88.1899 31.8783L93.745 24.7979Z" fill="white"/>
<path d="M56.1571 37.3646L59.9819 30.6712V38.8217H62.896V24.7746H61.0975C60.5283 24.7746 60.0046 25.0706 59.7314 25.5714L55.1553 33.9268L50.5792 25.5714C50.306 25.0706 49.7824 24.7518 49.2132 24.7746H47.3918V38.8217H50.306V30.6712L54.1308 37.3646H56.1571Z" fill="white"/>
<path d="M101.35 39.0268C97.3653 39.1179 94.0642 35.9533 93.9958 31.9691C93.9958 31.9236 93.9958 31.9008 93.9958 31.8553C93.9958 29.6469 94.6789 27.8028 95.931 26.5506C97.1832 25.2984 99.0273 24.6382 101.213 24.6382C103.786 24.6382 105.789 25.5261 107.246 27.2564L106.335 28.0304C105.766 28.5085 104.924 28.5313 104.309 28.076C103.444 27.4385 102.397 27.1198 101.327 27.1653C98.4581 27.1653 96.7734 28.8956 96.7734 31.8097C96.7734 34.7239 98.5264 36.568 101.327 36.568C102.397 36.5908 103.444 36.272 104.309 35.6573C104.924 35.202 105.744 35.2247 106.335 35.7028L107.246 36.4769C105.812 38.1617 103.854 39.0268 101.35 39.0268Z" fill="white"/>
<path d="M119.289 39.0042C114.759 39.0042 111.958 36.2494 111.958 31.8327C111.958 27.4159 114.759 24.6611 119.244 24.6611C121.407 24.6611 123.205 25.2758 124.617 26.5508L123.934 27.3021C123.456 27.8257 122.704 27.9623 122.067 27.6436C121.179 27.211 120.223 26.9833 119.244 26.9833C116.33 26.9833 114.531 28.8502 114.531 31.8327C114.531 34.8151 116.421 36.7048 119.449 36.7048C120.906 36.7048 122.044 36.4316 122.864 35.8396L122.909 35.8169V32.9255H119.699V31.992C119.699 31.2863 120.268 30.7171 120.974 30.7171H124.936C125.049 30.7171 125.163 30.8082 125.163 30.9448V37.1829C123.774 38.3895 121.794 39.0042 119.289 39.0042Z" fill="white"/>
<path d="M130.354 38.9813C129.512 39.004 128.692 38.7991 127.986 38.3893C127.372 38.0023 127.008 37.3193 127.03 36.5908V24.8203H128.601C129.193 24.8203 129.648 25.2984 129.648 25.8676V36.2265C129.671 36.568 129.808 36.8867 130.058 37.1372C130.309 37.3876 130.65 37.5242 130.992 37.5242H131.288C131.402 37.5242 131.515 37.6153 131.515 37.7519V39.0268L130.354 38.9813Z" fill="white"/>
</svg>
