<svg width="180" height="60" viewBox="0 0 180 60" fill="none" xmlns="http://www.w3.org/2000/svg">
<path d="M75.943 19.7998H56.4501C56.3299 19.7998 56.2146 19.8475 56.1296 19.9326C56.0445 20.0176 55.9968 20.1329 55.9968 20.2532V39.7461C55.9968 39.8663 56.0445 39.9816 56.1296 40.0666C56.2146 40.1516 56.3299 40.1993 56.4501 40.1993H75.943C76.0633 40.1993 76.1786 40.1516 76.2636 40.0666C76.3486 39.9816 76.3964 39.8663 76.3964 39.7461V20.2532C76.3964 20.1329 76.3486 20.0176 76.2636 19.9326C76.1786 19.8475 76.0633 19.7998 75.943 19.7998ZM69.5965 32.9462C69.5965 33.0664 69.5488 33.1817 69.4637 33.2668C69.3787 33.3517 69.2634 33.3996 69.1432 33.3996H63.25C63.1298 33.3996 63.0145 33.3517 62.9294 33.2668C62.8444 33.1817 62.7967 33.0664 62.7967 32.9462V27.0529C62.7967 26.9327 62.8444 26.8174 62.9294 26.7325C63.0145 26.6474 63.1298 26.5997 63.25 26.5997H69.1432C69.2634 26.5997 69.3787 26.6474 69.4637 26.7325C69.5488 26.8174 69.5965 26.9327 69.5965 27.0529V32.9462Z" fill="white"/>
<path d="M116.754 26.6011H110.86C110.61 26.6011 110.407 26.804 110.407 27.0543V32.9476C110.407 33.198 110.61 33.401 110.86 33.401H116.754C117.004 33.401 117.207 33.198 117.207 32.9476V27.0543C117.207 26.804 117.004 26.6011 116.754 26.6011Z" fill="white"/>
<path d="M109.951 19.8008H104.058C103.807 19.8008 103.604 20.0037 103.604 20.2541V26.1473C103.604 26.3977 103.807 26.6007 104.058 26.6007H109.951C110.201 26.6007 110.404 26.3977 110.404 26.1473V20.2541C110.404 20.0037 110.201 19.8008 109.951 19.8008Z" fill="white"/>
<path d="M123.551 19.8008H117.657C117.407 19.8008 117.204 20.0037 117.204 20.2541V26.1473C117.204 26.3977 117.407 26.6007 117.657 26.6007H123.551C123.801 26.6007 124.004 26.3977 124.004 26.1473V20.2541C124.004 20.0037 123.801 19.8008 123.551 19.8008Z" fill="white"/>
<path d="M109.951 33.4004H104.058C103.807 33.4004 103.604 33.6033 103.604 33.8537V39.7469C103.604 39.9973 103.807 40.2003 104.058 40.2003H109.951C110.201 40.2003 110.404 39.9973 110.404 39.7469V33.8537C110.404 33.6033 110.201 33.4004 109.951 33.4004Z" fill="white"/>
<path d="M123.551 33.4004H117.657C117.407 33.4004 117.204 33.6033 117.204 33.8537V39.7469C117.204 39.9973 117.407 40.2003 117.657 40.2003H123.551C123.801 40.2003 124.004 39.9973 124.004 39.7469V33.8537C124.004 33.6033 123.801 33.4004 123.551 33.4004Z" fill="white"/>
<path d="M99.7425 19.8008H93.8494C93.599 19.8008 93.396 20.0037 93.396 20.2541V26.1473C93.396 26.3977 93.599 26.6007 93.8494 26.6007H99.7425C99.9929 26.6007 100.196 26.3977 100.196 26.1473V20.2541C100.196 20.0037 99.9929 19.8008 99.7425 19.8008Z" fill="white"/>
<path d="M99.7425 33.4004H93.8494C93.599 33.4004 93.396 33.6033 93.396 33.8537V39.7469C93.396 39.9973 93.599 40.2003 93.8494 40.2003H99.7425C99.9929 40.2003 100.196 39.9973 100.196 39.7469V33.8537C100.196 33.6033 99.9929 33.4004 99.7425 33.4004Z" fill="white"/>
<path d="M93.3959 27.0478C93.3959 26.9276 93.3481 26.8123 93.2631 26.7274C93.1781 26.6423 93.0628 26.5946 92.9425 26.5946H86.596V20.2532C86.596 20.1329 86.5482 20.0176 86.4632 19.9326C86.3782 19.8475 86.2629 19.7998 86.1427 19.7998H80.2495C80.1292 19.7998 80.0139 19.8475 79.9289 19.9326C79.8439 20.0176 79.7961 20.1329 79.7961 20.2532V39.7359C79.7961 39.8561 79.8439 39.9714 79.9289 40.0564C80.0139 40.1414 80.1292 40.1892 80.2495 40.1892H86.1427C86.2629 40.1892 86.3782 40.1414 86.4632 40.0564C86.5482 39.9714 86.596 39.8561 86.596 39.7359V33.3945H92.9425C93.0628 33.3945 93.1781 33.3466 93.2631 33.2617C93.3481 33.1766 93.3959 33.0613 93.3959 32.9411V27.0478Z" fill="white"/>
</svg>
