<svg width="180" height="60" viewBox="0 0 180 60" fill="none" xmlns="http://www.w3.org/2000/svg">
<g clip-path="url(#clip0_2953_7075)">
<path fill-rule="evenodd" clip-rule="evenodd" d="M60.0248 16.9014H62.5965L49.99 43.1442H46.3893L35.5925 20.6562H35.5867L33.7896 16.9014H40.9595C43.1799 16.9014 45.2034 18.1748 46.1641 20.1765L50.9079 29.9907L49.1065 33.7405L43.2342 21.584C42.9616 21.0169 42.3883 20.6562 41.7594 20.6562H39.1933L48.1902 39.3952L49.99 35.6482L49.9829 35.6334L51.7834 31.8852L51.7905 31.9002L58.5498 17.8291C58.8223 17.2621 59.3959 16.9014 60.0248 16.9014ZM131.346 22.5292H134.022V24.9638H132.876C132.031 24.9638 131.346 24.2788 131.346 23.4341V22.5292ZM78.7088 26.2514C77.943 26.2514 77.2598 26.7337 77.0039 27.4562L74.8559 33.5176L72.7077 27.4562C72.4518 26.7337 71.7688 26.2514 71.0028 26.2514H69.3032L73.8093 37.397H75.9023L80.4082 26.2514H78.7088ZM99.4558 37.7588C101.91 37.7588 104.264 36.1498 104.988 33.7758H101.971C101.467 34.6008 100.522 35.1438 99.5364 35.1438C97.5847 35.1438 96.1765 33.7556 96.1765 31.7837C96.1765 29.933 97.484 28.505 99.3953 28.505C100.542 28.505 101.387 28.9678 101.971 29.9536H104.988C104.324 27.5392 101.89 25.8896 99.4357 25.8896C96.1967 25.8896 93.501 28.4848 93.501 31.744C93.501 33.3938 94.1044 34.9426 95.3116 36.0895C96.3979 37.1352 97.9472 37.7588 99.4558 37.7588ZM106.533 22.5293H108.182C108.749 22.5293 109.209 22.9886 109.209 23.5555V27.0959C109.812 26.2711 111.079 25.8887 112.065 25.8887C113.272 25.8887 114.559 26.4723 115.344 27.3776C116.37 28.5445 116.41 29.8721 116.41 31.3606V37.396H113.735V31.9443C113.735 30.2745 113.554 28.5041 111.461 28.5041C110.697 28.5041 110.053 28.8258 109.63 29.47C109.207 30.1449 109.208 31.1154 109.208 31.886V31.8861L109.209 31.9847V36.3398C109.209 36.923 108.736 37.396 108.152 37.396H106.533V22.5293ZM120.182 31.9246C120.182 29.9734 121.551 28.4845 123.522 28.5047C125.413 28.4845 126.741 29.9333 126.741 31.8042C126.741 33.7151 125.413 35.1636 123.482 35.1434C121.671 35.1636 120.182 33.7552 120.182 31.9246ZM126.822 37.3966H129.276V26.2515H127.847C127.281 26.2515 126.822 26.7107 126.822 27.2773V27.8207C125.936 26.5732 124.609 25.8893 123.079 25.8893C121.45 25.8893 120.062 26.5126 118.935 27.8207C117.909 28.9874 117.507 30.2749 117.507 31.8237C117.507 33.3732 118.01 34.8213 118.895 35.8879C119.861 37.0346 121.269 37.7588 122.999 37.7588C124.407 37.7588 125.976 37.0346 126.781 35.8879H126.822V37.3966ZM132.502 26.2514H134.022V37.3967H131.346V27.408C131.346 26.7689 131.864 26.2514 132.502 26.2514ZM137.843 26.2516H136.395V37.397H137.659C138.439 37.397 139.071 36.7646 139.071 35.985V32.3476L139.071 32.2754L139.07 32.1568C139.068 31.2953 139.064 30.2016 139.513 29.4906C139.875 28.8872 140.66 28.5048 141.384 28.5048C142.068 28.5048 142.772 28.8469 143.155 29.4301C143.617 30.1745 143.617 31.2815 143.617 32.1464V37.397H146.293V31.6233C146.293 30.1947 146.273 28.8065 145.408 27.5995C145.327 27.479 145.227 27.3783 145.126 27.2778C144.321 26.4125 143.114 25.8896 141.947 25.8896C140.781 25.8896 139.573 26.3524 138.91 27.2778H138.869C138.869 26.711 138.41 26.2516 137.843 26.2516ZM91.5018 29.3335C90.2055 26.4976 86.7626 25.0631 83.8716 26.3847C80.8345 27.773 79.6214 31.3132 80.993 34.314C82.34 37.26 85.8237 38.5428 88.7695 37.1963C90.9107 36.2174 92.3535 33.8106 92.1478 31.7145L89.5909 32.8836C89.5063 32.9224 89.4447 32.9939 89.4108 33.0807C89.1369 33.7821 88.4501 34.4669 87.591 34.8597C86.4125 35.3983 85.0462 35.163 84.1416 34.252C83.9577 34.1157 83.2334 33.4923 83.0093 31.9987C82.9261 31.3444 83.1038 30.6901 83.4265 30.0939C83.4925 29.9718 83.5719 29.8552 83.6616 29.7493C85.0213 28.1494 87.2763 28.039 88.5901 29.4479L85.2584 30.9705L86.2456 33.1298L91.9006 30.5449C91.876 30.4619 91.8523 30.3784 91.8285 30.295C91.7352 29.9674 91.6419 29.6399 91.5018 29.3335Z" fill="white"/>
</g>
<defs>
<clipPath id="clip0_2953_7075">
<rect width="112.657" height="26.4" fill="white" transform="translate(33.6714 16.7998)"/>
</clipPath>
</defs>
</svg>
