<svg width="180" height="60" viewBox="0 0 180 60" fill="none" xmlns="http://www.w3.org/2000/svg">
<path d="M94.0382 19C91.8788 19 89.768 19.645 87.9728 20.8537C86.1775 22.0624 84.7783 23.7804 83.9518 25.7904C83.1256 27.8004 82.9093 30.0121 83.3307 32.1459C83.7518 34.2797 84.7916 36.2399 86.3185 37.7782C87.8453 39.3166 89.7906 40.3642 91.9083 40.7886C94.026 41.2131 96.2211 40.9952 98.2158 40.1627C100.211 39.3301 101.916 37.9202 103.115 36.1112C104.315 34.3023 104.955 32.1756 104.955 30C104.955 27.0826 103.805 24.2847 101.758 22.2218C99.7103 20.1589 96.9334 19 94.0382 19ZM94.0382 35.9222C92.8755 35.9222 91.7391 35.575 90.7727 34.9242C89.8061 34.2735 89.0527 33.3485 88.608 32.2663C88.1629 31.1842 88.0467 29.9935 88.2733 28.8448C88.5002 27.696 89.0599 26.6407 89.8819 25.8125C90.7041 24.9843 91.7514 24.4202 92.8915 24.1917C94.0316 23.9632 95.2134 24.0804 96.2873 24.5286C97.3614 24.9769 98.2794 25.736 98.9253 26.7099C99.5711 27.6838 99.9156 28.8287 99.9156 30C99.9156 31.5707 99.2966 33.0769 98.1943 34.1875C97.092 35.2981 95.597 35.9222 94.0382 35.9222Z" fill="#FEFEFE"/>
<path d="M118.645 19C116.486 19 114.375 19.645 112.579 20.8537C110.784 22.0624 109.385 23.7804 108.558 25.7904C107.732 27.8004 107.516 30.0121 107.937 32.1459C108.359 34.2797 109.398 36.2399 110.925 37.7782C112.452 39.3166 114.397 40.3642 116.515 40.7886C118.633 41.2131 120.828 40.9952 122.823 40.1627C124.817 39.3301 126.523 37.9202 127.722 36.1112C128.922 34.3023 129.562 32.1756 129.562 30C129.562 27.0826 128.412 24.2847 126.364 22.2218C124.317 20.1589 121.54 19 118.645 19ZM118.645 35.9222C117.482 35.9222 116.346 35.575 115.379 34.9242C114.413 34.2735 113.659 33.3485 113.215 32.2663C112.77 31.1842 112.653 29.9935 112.88 28.8448C113.107 27.696 113.666 26.6407 114.489 25.8125C115.311 24.9843 116.358 24.4202 117.498 24.1917C118.638 23.9632 119.82 24.0804 120.894 24.5286C121.968 24.9769 122.886 25.736 123.532 26.7099C124.178 27.6838 124.522 28.8287 124.522 30C124.522 31.5707 123.903 33.0769 122.801 34.1875C121.699 35.2981 120.204 35.9222 118.645 35.9222Z" fill="#FEFEFE"/>
<path d="M82.2153 19.1821H76.8976L74.4452 27.2451H79.6853L82.2153 19.1821Z" fill="#FEFEFE"/>
<path d="M70.0567 26.8549L72.6897 33.0712L73.6449 29.8981H78.8592L75.9165 39.5476C75.6841 40.3019 74.9872 40.822 74.187 40.822H71.2183C70.4955 40.822 69.8244 40.3799 69.5404 39.6776L66.2879 31.6667L63.0611 39.6516C62.803 40.3279 62.1318 40.796 61.3832 40.796H58.3888C57.5886 40.796 56.8916 40.2758 56.6593 39.5216L50.4381 19.1821H55.6783L59.8086 33.0712L62.5449 26.8029C63.1386 25.2424 64.6358 24.228 66.2879 24.228C67.9658 24.228 69.463 25.2683 70.0567 26.8549Z" fill="#FEFEFE"/>
</svg>
